<svg xmlns="http://www.w3.org/2000/svg" xmlns:xlink="http://www.w3.org/1999/xlink" width="1440" height="333" viewBox="0 0 1440 333">
  <defs>
    <clipPath id="clip-Artboard_1">
      <rect width="1440" height="333"/>
    </clipPath>
  </defs>
  <g id="Artboard_1" data-name="Artboard – 1" clip-path="url(#clip-Artboard_1)">
    <rect width="1440" height="333" fill="#fff"/>
    <g id="Group_372" data-name="Group 372" transform="translate(28 -237.725)">
      <path id="Intersect" d="M124.376,338.04l-269.26-.064q-.834,0-1.659-.033L-149,336.02l62.471-79.845,210.926.05a40.908,40.908,0,0,1-.01,81.815Z" transform="translate(-61.147)" fill="rgba(42,50,125,0.7)"/>
      <path id="Intersect-2" data-name="Intersect" d="M31.819,535.273l-83.542-.02c-.172,0-.344,0-.515-.01l-.762-.6,19.383-24.774,65.443.016a12.692,12.692,0,0,1,0,25.384Z" fill="rgba(58,170,53,0.7)"/>
      <path id="Intersect-3" data-name="Intersect" d="M1489.415,399.361l-201.456-.048a30.606,30.606,0,1,1,.014-61.213l201.456.048a30.606,30.606,0,0,1-.006,61.213Z" transform="translate(76 -24)" fill="rgba(29,113,184,0.7)"/>
      <path id="Intersect-4" data-name="Intersect" d="M1482.906,511.469l-100.479-.024a15.265,15.265,0,1,1,.007-30.531l100.479.023a15.266,15.266,0,0,1,0,30.532Z" transform="translate(0 41.659)" fill="rgba(58,170,53,0.7)"/>
    </g>
  </g>
</svg>
