<?xml version="1.0" encoding="utf-8"?>
<!-- Generator: Adobe Illustrator 25.2.0, SVG Export Plug-In . SVG Version: 6.00 Build 0)  -->
<svg version="1.1" id="Layer_1" xmlns="http://www.w3.org/2000/svg" xmlns:xlink="http://www.w3.org/1999/xlink" x="0px" y="0px"
	 viewBox="0 0 1440 769" style="enable-background:new 0 0 1440 769;" xml:space="preserve">
<style type="text/css">
	.st0{clip-path:url(#SVGID_2_);}
	.st1{opacity:0.5;fill:url(#Intersect_1_);enable-background:new    ;}
	.st2{opacity:0.5;fill:url(#Intersect-2_1_);enable-background:new    ;}
	.st3{opacity:0.5;fill:url(#Intersect-3_1_);enable-background:new    ;}
</style>
<g>
	<defs>
		<rect id="SVGID_1_" width="1440" height="769"/>
	</defs>
	<clipPath id="SVGID_2_">
		<use xlink:href="#SVGID_1_"  style="overflow:visible;"/>
	</clipPath>
	<g id="Mask_Group_2" class="st0">
		<linearGradient id="Intersect_1_" gradientUnits="userSpaceOnUse" x1="617.7619" y1="153.2576" x2="2446.0452" y2="153.2576">
			<stop  offset="0" style="stop-color:#2A327D;stop-opacity:0.5"/>
			<stop  offset="0.243" style="stop-color:#1D71B8;stop-opacity:0.5"/>
			<stop  offset="0.5307" style="stop-color:#3AAA35;stop-opacity:0.5"/>
		</linearGradient>
		<path id="Intersect" class="st1" d="M919.1-235.5l1227.8,3.3C2312.5-231.7,2446.5-97,2446,68.7l-0.5,174.1
			c-0.5,165.7-135.1,299.6-300.8,299.2l-1227.8-3.3c-165.7-0.5-299.6-135.1-299.2-300.8l0.5-174.1c0.5-165.4,134.7-299.2,300-299.2
			L919.1-235.5z"/>
		<linearGradient id="Intersect-2_1_" gradientUnits="userSpaceOnUse" x1="803.357" y1="254.7072" x2="2426.4573" y2="254.7072">
			<stop  offset="0" style="stop-color:#2A327D;stop-opacity:0.5"/>
			<stop  offset="0.243" style="stop-color:#1D71B8;stop-opacity:0.5"/>
			<stop  offset="0.5307" style="stop-color:#3AAA35;stop-opacity:0.5"/>
		</linearGradient>
		<path id="Intersect-2" class="st2" d="M1104.4-90.4l1022.9,2.8c165.7,0.5,299.6,135.1,299.2,300.8l-0.2,87.5
			c-0.4,165.7-135.1,299.6-300.8,299.2l-1022.9-2.8c-165.7-0.5-299.6-135.1-299.2-300.8l0.2-87.5c0.5-165.4,134.7-299.2,300-299.2
			L1104.4-90.4z"/>
		<linearGradient id="Intersect-3_1_" gradientUnits="userSpaceOnUse" x1="1029.0345" y1="314.1952" x2="1756.9646" y2="314.1952">
			<stop  offset="0" style="stop-color:#2A327D;stop-opacity:0.5"/>
			<stop  offset="0.243" style="stop-color:#1D71B8;stop-opacity:0.5"/>
			<stop  offset="0.5307" style="stop-color:#3AAA35;stop-opacity:0.5"/>
		</linearGradient>
		<path id="Intersect-3" class="st3" d="M1757,312.6c0.2,124.2-61.9,225.1-138.8,225.4l-449.6,2c-76.9,0.3-139.3-100-139.5-224.2
			S1091,90.7,1167.8,90.4l449.6-2h0.4C1694.5,88.4,1756.8,188.6,1757,312.6z"/>
	</g>
</g>
</svg>
