<?xml version="1.0" encoding="utf-8"?>
<!-- Generator: Adobe Illustrator 25.2.0, SVG Export Plug-In . SVG Version: 6.00 Build 0)  -->
<svg version="1.1" id="a8da25f4-889f-4ee6-ae6a-a6a994838cbb"
	 xmlns="http://www.w3.org/2000/svg" xmlns:xlink="http://www.w3.org/1999/xlink" x="0px" y="0px" viewBox="0 0 800 800"
	 style="enable-background:new 0 0 800 800;" xml:space="preserve">
<style type="text/css">
	.st0{fill:#1D71B8;}
	.st1{fill:#FFB9B9;}
	.st2{opacity:0.1;fill:#1D71B8;enable-background:new    ;}
	.st3{fill:#2F2E41;}
	.st4{fill:#F2F2F2;}
</style>
<path class="st0" d="M791.4,250.7l-0.7-1.9l-177.1,69.9L444.2,124.9L654.4,42l-0.7-1.9l-211,83.2l-52.3-59.8l8.6-3.4
	c-5.8-0.8-13.4-3.8-18.8-6.8c2.3,5.8,4.2,13.6,4.2,19.5l4.5-8.1l51.9,59.3L119.1,250.8l-0.3-9.2c-2.8,5.2-8.1,11.4-12.7,15.4
	c6.2-0.1,14.2,0.6,19.8,2.7l-6.1-7l322.3-127.1l169.4,193.7L256,459.6l-0.3-9.2c-2.8,5.2-8.1,11.4-12.7,15.4
	c6.2-0.1,14.2,0.6,19.8,2.7l-6.1-7l356.2-140.4l154.2,176.3l1.5-1.3L615,320.3L791.4,250.7z"/>
<polygon class="st1" points="618.1,732.2 615.7,763.2 638.7,765.5 633.2,728.2 "/>
<rect x="2.4" y="44" class="st2" width="81.9" height="149.7"/>
<rect x="245.5" y="537.5" class="st2" width="110.2" height="149.7"/>
<rect x="137.2" y="306.8" class="st2" width="109.3" height="164.8"/>
<rect x="246.4" y="92" class="st2" width="109.3" height="164.8"/>
<rect x="1.4" y="795.2" class="st0" width="790" height="2.3"/>
<path class="st0" d="M490.5,688.3H1.4V42.8h489.1V688.3z M3.5,686.2h484.9V44.9H3.5V686.2z"/>
<path class="st0" d="M387.8,688.3H105V43.9h282.8V688.3z M107.1,686.2h278.6V46H107.1V686.2z"/>
<path class="st0" d="M490.5,472.6H1.4V255.7h489.1V472.6z M3.5,470.5h484.9V257.8H3.5V470.5z"/>
<circle class="st0" cx="106" cy="256.8" r="31.1"/>
<circle class="st0" cx="386.7" cy="47.6" r="31.1"/>
<rect x="244.9" y="44.9" class="st0" width="2.1" height="642.4"/>
<path class="st3" d="M537.9,450.3L537.9,450.3c19.6,6,30.1,28.6,23.4,50.4l-8.5,27.7l-8.5-2.6l-1.7-11.7l-1.9,10.6L486,507.9
	l-1.6-10.7l-1.7,9.7l-6.2-1.9l6.7-21.8C490.7,458,515.3,443.3,537.9,450.3z"/>
<path class="st1" d="M507.4,533.4c-7-1.2-13.7,3.6-14.8,10.6c-0.1,0.4-0.1,0.8-0.2,1.3c-0.3,4.8,1.3,10.4,8.7,14.6
	c15.9,8.9,50.3,28.3,50.3,28.3l65.7,12.6c0,0,33.2,26.5,37.4,11.4c4.1-15.1-31.5-24.3-31.5-24.3l-60.4-15.5l-38.5-27.9
	C524.2,544.5,517.2,535.1,507.4,533.4z"/>
<polygon class="st1" points="486.4,595.1 493,613.7 532.7,604.1 522.4,590.3 "/>
<polygon class="st1" points="380.4,770.1 350.4,767.1 371.4,746.7 386.4,756.9 "/>
<circle class="st1" cx="530.9" cy="487.9" r="24.7"/>
<path class="st1" d="M511.6,491.8c0,0-13.8,16.2-21,18.6c-7.2,2.4-25.2,25.2-16.2,40.2s42.1-3.6,42.1-3.6l-1.2-15
	c0,0,13.8-24.1,16.8-25.8C535.1,504.5,511.6,491.8,511.6,491.8z"/>
<path class="st0" d="M509.2,520.8c-9.2-13.8-30.5-11.4-35.7,4.4c-0.1,0.3-0.2,0.6-0.2,0.9c-4.8,16.2,2.4,43.8,2.4,43.8l10.8,32.4
	c0,0,28.3-13.2,48.7,9l-3-22.8c0,0,8.4-19.2-2.4-33C522.7,546.7,516.4,531.5,509.2,520.8z"/>
<path d="M535.4,612.8c0,0-14.4-19.2-43.8-7.8l-5.4,15c0,0-31.2,24.6-13.8,62.5l-1.2,56.4l-4.8,16.2l-87.1-7.2l-3,27.6l15.6,1.2
	c0,0,88.3,34.8,102.1,13.2s42.6-106.8,42.6-106.8l74.8,11.2c0,0-2.2,23.4,0.2,26.4c2.5,3,1.2,15.6,2.4,18c1.2,2.4,0.2,8.7,0.2,8.7
	l24.8-0.8v-12c0,0,3-16.2,3-20.4s18-59.5-13.2-64.2c-31.2-4.8-84.9-13.6-84.9-13.6L535.4,612.8z"/>
<path d="M367.2,765.9l-1.2,9c0,0-39.6-7.8-48-0.6c-8.4,7.1-8.4,12-15,7.2c-2.8-2.1-0.4-7,3.3-12.1c5.9-7.9,13.5-14.3,22.4-18.6
	c9.9-4.8,23.6-11.9,23.6-13.8c0-3,10.8-12,15-7.2c4.2,4.8,12,18,12,18L367.2,765.9z"/>
<path d="M614.4,748.9c0,0-8.8,31.2-5.6,32.8s9.6,6.4,19.2,6.4c5.6,0,14.1,3.1,20.1,5.6c7,3,14.5,4.3,22.1,3.8c5-0.3,9.3-1.5,9-4.6
	c-0.8-7.2-16-8.8-16-8.8l-16-20.8c0,0-2.8-13.2-5.2-13.2c-1.3,0.1-2.6-0.4-3.6-1.2H614.4z"/>
<path class="st1" d="M507.3,518.9c-3-7.6-11.7-11.4-19.3-8.4c-0.5,0.2-0.9,0.4-1.3,0.6c-4.9,2.5-9.5,7.5-9.3,17.3
	c0.6,21,1.8,66.7,1.8,66.7l26.4,72.6c0,0-6.6,48.7,10.8,43.8c17.4-4.8,5.4-45.6,5.4-45.6l-20.4-69.1l4.8-54.6
	C506.2,542.2,511.4,529.7,507.3,518.9z"/>
<path class="st3" d="M524.4,458c4.9-3.6,11.2-4.7,17-2.9l0.7,0.2c13.4,4.1,20.6,19.7,16,34.7l0,0l-4.5-1.3l1-5.8l-2.8,5.2l-26.8-8.3
	l-0.8-5.4l-0.9,4.8l-5.2-1.6c-6.2,11.4-6.4,24.7-0.7,39.8l-9-2.8l-1.6-10.7l-1.7,9.7l-17.1-5.2l3.3-22.6
	C496.4,469.7,510,458.9,524.4,458z"/>
<circle class="st0" cx="246.4" cy="471.6" r="95.1"/>
<rect x="619.7" y="209" class="st0" width="179" height="68.7"/>
<rect x="651.2" y="227.4" class="st4" width="115.9" height="5.7"/>
<rect x="651.2" y="240.6" class="st4" width="115.9" height="5.7"/>
<rect x="651.2" y="253.8" class="st4" width="115.9" height="5.7"/>
<rect x="578" y="1.5" class="st0" width="179" height="68.7"/>
<rect x="609.5" y="19.9" class="st4" width="115.9" height="5.7"/>
<rect x="609.5" y="33.1" class="st4" width="115.9" height="5.7"/>
<rect x="609.5" y="46.3" class="st4" width="115.9" height="5.7"/>
<rect x="619.7" y="434.9" class="st0" width="179" height="68.7"/>
<rect x="651.2" y="453.3" class="st4" width="115.9" height="5.7"/>
<rect x="651.2" y="466.5" class="st4" width="115.9" height="5.7"/>
<rect x="651.2" y="479.7" class="st4" width="115.9" height="5.7"/>
</svg>
