<svg id="Layer_1" data-name="Layer 1" xmlns="http://www.w3.org/2000/svg" xmlns:xlink="http://www.w3.org/1999/xlink" viewBox="0 0 180 180"><defs><style>.cls-1{fill:url(#linear-gradient);}.cls-2{fill:#dc8b8c;}.cls-19,.cls-3,.cls-33,.cls-8{fill:#010101;}.cls-11,.cls-3,.cls-7{opacity:0.1;}.cls-11,.cls-13,.cls-19,.cls-3,.cls-33,.cls-6{isolation:isolate;}.cls-4{fill:#482828;}.cls-11,.cls-5{fill:#28347a;}.cls-13,.cls-34,.cls-6{fill:#fff;}.cls-6{opacity:0.3;}.cls-9{fill:#3caa36;}.cls-10{fill:#585ea7;}.cls-12{fill:#1e71b8;}.cls-13{opacity:0.5;}.cls-14{fill:#f2f2f2;}.cls-15{fill:#cdcccc;}.cls-16{fill:#a1626a;}.cls-17{fill:#302f42;}.cls-18{fill:#403e56;}.cls-19,.cls-26{opacity:0.05;}.cls-20{fill:url(#linear-gradient-2);}.cls-21{fill:#ec6047;}.cls-22{fill:#f7b798;}.cls-23{fill:#b5abab;}.cls-24{fill:#555562;}.cls-25{fill:#f1e4e4;}.cls-27{fill:url(#linear-gradient-3);}.cls-28{fill:#5bba97;}.cls-29{fill:#f7bdbd;}.cls-30{fill:none;}.cls-31{fill:#e7e6e6;}.cls-32{fill:#f6b6b9;}.cls-33{opacity:0.2;}</style><linearGradient id="linear-gradient" x1="234.7" y1="54.95" x2="234.7" y2="120.15" gradientTransform="matrix(1, 0, 0, -1, -96.78, 125.4)" gradientUnits="userSpaceOnUse"><stop offset="0" stop-color="#808181" stop-opacity="0.25"/><stop offset="0.54" stop-color="#808181" stop-opacity="0.12"/><stop offset="1" stop-color="#808181" stop-opacity="0.1"/></linearGradient><linearGradient id="linear-gradient-2" x1="118.43" y1="75.25" x2="118.43" y2="131.45" gradientTransform="matrix(1, 0, 0, -1, -47.74, 131.45)" xlink:href="#linear-gradient"/><linearGradient id="linear-gradient-3" x1="70.44" y1="97.84" x2="70.44" y2="101.07" gradientTransform="matrix(1, 0, 0, -1, -47.74, 131.45)" xlink:href="#linear-gradient"/></defs><path class="cls-1" d="M164.14,65.13c-1.15-.16-3.28-2-3.28-2a1.61,1.61,0,0,0-1.41-.72l-2.11-3a23,23,0,0,0-2.89-3.91c-.18-.2-.37-.39-.56-.58a16,16,0,0,0-1.83-1.56,12,12,0,0,1-1.21-1c-.34-.35-.67-.71-1-1.09l-1.47-2.06-.1-.14a2.09,2.09,0,0,0,0-.61.68.68,0,0,0,0-.14l-6.06-7.13-1.8-3.68h0l-.21.16,0-.09v-.35a15.14,15.14,0,0,1,1.84-7.31,5.12,5.12,0,0,0,.62-2.45v-.21l0,0c-.06-.07-.19-.21-.36-.43,0-.05.05-.09.07-.13a3.09,3.09,0,0,1,1.8-1.62,12.33,12.33,0,0,0,6.06-2.87c2.62-1.47,2.13-2.79,2.13-2.79L150,13.68l-1.48-3-.41-1.39a21.3,21.3,0,0,0-.57-2.75,1.67,1.67,0,0,0-2.93-.62l-.06.08A2.63,2.63,0,0,0,145,9.48c.82.7,1.53,1.42,1.53,1.42,1.48.4,2.47,8,2.47,8l-1,.66a5.47,5.47,0,0,0-3.93,2H141s0,0,0,0l-.51-.12L139,21.06l-.54-.12v0l-.16,0v0a10,10,0,0,1-.55-1h.13l0-.08h0c.23-.49,0-1.1.25-1.61a5.81,5.81,0,0,1,.4-.61,3,3,0,0,0,.19-1.93,4.75,4.75,0,0,0-.67-2,2,2,0,0,0-1.81-.92c-.55.07-1,.46-1.61.49a3.13,3.13,0,0,1-1.15-.25,7.45,7.45,0,0,0-1.24-.29.9.9,0,0,0-.8.17l0,0-.06.06a.94.94,0,0,0-.17.31l-.36,1a.22.22,0,0,0,0,.22.35.35,0,0,0,.13.08c.29.19-.09.65.14.87a1.19,1.19,0,0,0,.75.15,3.2,3.2,0,0,0,1,4.41,3.14,3.14,0,0,0,1,.42v.16a6.28,6.28,0,0,1-.1,1.3h0l-.24,0c-.4,0-1.2,0-1.91,0a5.35,5.35,0,0,1-.7-.07s0,.3-.09.76l-.16,0A6.84,6.84,0,0,0,127,25.41l-3.69,2.13s-1.64-.4-6.38,3.69L113.46,33s-5.26,1.54-4.27,3.1,5.89-1.89,5.89-1.89l2-.9,6-2.62a18.39,18.39,0,0,1,3.44-1.81,9.33,9.33,0,0,0,2.95-2l.37,0H130l-.08.13-.05.06V40.3l0,.36h0l-.4,5.36a18.92,18.92,0,0,1-.24,3.85c-.33,1.39.24,7,.24,7l.57,0v.16l-.15,2.32s-.27.89,1.32,1.36a3.68,3.68,0,0,1,1,.47L134,62.4l1.88,1.15.38.8,0,0-.4-.24s-.33.82.74,1.88a3.49,3.49,0,0,1,1.15,2.87s.16,2,1.15,1.47c0,0,1.55-.33,1.48-3,0,0-.62-2.25.1-3.2l.06-.07c.82-.9-.25-2.3-.25-2.3s-1.89-.77-2,.5l-.08,0a4.23,4.23,0,0,1-1.6-1.54s-1.07-2.7-2.7-2.94l.27-1.56,0-.18A2.6,2.6,0,0,0,135.48,55h0v0h0v0h0V54.8l0,0v0l0,0v-.05l0,0v-.08l.08-.15v0l0-.05v0l0,0v0l0-.06v0l0-.06v0l0-.06,0,0,0-.06,0,0,0-.06v0l0-.07v0l0-.08h0a12.16,12.16,0,0,0,1.15-4v-.25h0a.29.29,0,0,0,0-.1l4.43,1,2.62,2.87h.22l0,0h0l0,0h0l0,0h0l0,0,0,0,0,0,0-.07,0,0,0,0,0,0,0,0,0,0h0l.05,0,0,0,.05,0,0,0,.06,0h0l.09.1L146.45,54a23,23,0,0,1,3.77,2.94,8.26,8.26,0,0,0,2.23,2.26,3.67,3.67,0,0,0,.6.36,7.31,7.31,0,0,1,1.32,1.08,17.78,17.78,0,0,0,1.93,1.64A8.41,8.41,0,0,1,158,64h0L158,64c-.39,1.31,1.85,2.65,1.85,2.65.82-.16,3.35,2.13,3.35,2.13s2.38,1.89,3.36-.16S164.14,65.13,164.14,65.13Zm-4.34-2.19-.33-.47h0a.56.56,0,0,1,.32.46Z"/><path class="cls-2" d="M139.38,22.73s-8.29,4.83-6.52,2.09A6.8,6.8,0,0,0,134,20.93a5,5,0,0,0-.18-1.33L137.29,18a3.37,3.37,0,0,0,.12,1.41A10,10,0,0,0,139.38,22.73Z"/><path class="cls-3" d="M137.41,19.4a3.13,3.13,0,0,1-3.4,1.53,5,5,0,0,0-.18-1.33L137.28,18A3.38,3.38,0,0,0,137.41,19.4Z"/><circle class="cls-2" cx="134.67" cy="17.71" r="3.14"/><path class="cls-3" d="M132.67,16a1.18,1.18,0,0,1,.74.49c.21.33.21.78.5,1a1,1,0,0,0,.76.19,3.66,3.66,0,0,1,.81,0,1.61,1.61,0,0,1,1,.76,10.74,10.74,0,0,1,.58,1.18,1.32,1.32,0,0,0,.3.44.55.55,0,0,0,.48.15c.22-.49,0-1.09.24-1.58a6.17,6.17,0,0,1,.39-.6,2.91,2.91,0,0,0,.19-1.89,4.61,4.61,0,0,0-.66-2,2,2,0,0,0-1.77-.91c-.55.08-1,.45-1.58.48a3.08,3.08,0,0,1-1.14-.25,7,7,0,0,0-1.22-.27.7.7,0,0,0-.95.47l-.35,1a.22.22,0,0,0,0,.22s.08.05.13.08c.28.18-.1.63.13.85S132.34,16,132.67,16Z"/><path class="cls-4" d="M132.75,16a1.18,1.18,0,0,1,.74.49c.21.33.21.78.5,1a1,1,0,0,0,.76.19,3.66,3.66,0,0,1,.81,0,1.61,1.61,0,0,1,1,.76,10.74,10.74,0,0,1,.58,1.18,1.43,1.43,0,0,0,.3.44.55.55,0,0,0,.48.15c.22-.49,0-1.09.24-1.58a6.17,6.17,0,0,1,.39-.6,2.91,2.91,0,0,0,.19-1.89,4.7,4.7,0,0,0-.66-2,2,2,0,0,0-1.77-.9c-.55.08-1,.45-1.58.48a3,3,0,0,1-1.13-.25,7.29,7.29,0,0,0-1.23-.27.85.85,0,0,0-.78.16.9.9,0,0,0-.17.3l-.35,1a.22.22,0,0,0,0,.22s.08.05.13.08c.28.18-.1.63.13.85S132.42,15.88,132.75,16Z"/><path class="cls-2" d="M150,22.49a12.16,12.16,0,0,1-6,2.82,3,3,0,0,0-1.76,1.59,5.9,5.9,0,0,0-.57,1.62L138,22.24l-.23-.39H144a5.33,5.33,0,0,1,3.86-1.93l1-.65s-1-7.48-2.42-7.88c0,0-.7-.71-1.5-1.39a2.58,2.58,0,0,1-.47-3.45l.06-.08a1.65,1.65,0,0,1,2.89.61,22.66,22.66,0,0,1,.55,2.7l.41,1.37,1.44,3,2.34,5.63S152.57,21.05,150,22.49Z"/><path class="cls-2" d="M131.49,22.81,131,27.08l-1.08.07h-.37a9.14,9.14,0,0,1-2.89,1.93,18.38,18.38,0,0,0-3.38,1.78l-5.87,2.56-1.93.89s-4.83,3.38-5.8,1.85,4.19-3.06,4.19-3.06l3.38-1.78c4.67-4,6.27-3.61,6.27-3.61l3.62-2.09A6.72,6.72,0,0,1,130.84,23C131.05,22.9,131.27,22.85,131.49,22.81Z"/><path class="cls-3" d="M142.28,26.9a5.9,5.9,0,0,0-.57,1.62L138,22.24a4,4,0,0,0,.23-.39,3.42,3.42,0,0,0,.22-.61l.54.13,1.45.32.51.12s0,0,0,0C140.26,23.83,141.53,25.92,142.28,26.9Z"/><path class="cls-3" d="M131.49,22.81,131,27.08l-1.08.07a15.79,15.79,0,0,0,.91-4.18A5.13,5.13,0,0,1,131.49,22.81Z"/><path class="cls-5" d="M142,30a14.93,14.93,0,0,0-1.8,7.25v.36s.88,2.41,0,2.41-.81,1.2-1.93,1.45-5.07,1.93-6.28,1.2a6.6,6.6,0,0,1-2-2.25V27.32l0-.06c.7-1,1.08-5.1,1.08-5.1a5.38,5.38,0,0,0,.69.07c.69,0,1.48,0,1.88,0h.24a3.61,3.61,0,0,0,2.12.62,2.7,2.7,0,0,1,.49,0c1.36.19,1.77-1.62,1.77-1.62l.54.12,1.45.33.51.11c-.91,2.57,1.47,5.31,1.77,5.64l0,0A5.09,5.09,0,0,1,142,30Z"/><path class="cls-6" d="M131.78,22.24c0,1.06-.25,4.6-1.81,5.11v0l0-.06c.7-1,1.08-5.1,1.08-5.1A5.4,5.4,0,0,0,131.78,22.24Z"/><path class="cls-6" d="M142.56,27.45c-2.94-.16-2.59-4-2.28-5.75l.5.11C139.88,24.37,142.26,27.11,142.56,27.45Z"/><g class="cls-7"><path class="cls-8" d="M142.59,27.56a0,0,0,0,0,0,0,3.14,3.14,0,0,1-.65-.17s0-.12,0-.12a4.94,4.94,0,0,1-.62,2.53,15,15,0,0,0-1.8,7.25v.36s.88,2.41,0,2.41-.81,1.21-1.93,1.45-4.42,1.65-5.91,1.34a2.68,2.68,0,0,0,.28.18c1.21.73,5.15-1,6.27-1.2s1-1.45,1.93-1.45,0-2.41,0-2.41v-.36A14.94,14.94,0,0,1,142,30.09,5.06,5.06,0,0,0,142.59,27.56Z"/><path class="cls-8" d="M134.1,22.37l-.11-.08h-.09Z"/></g><path class="cls-2" d="M159.49,62.63l-1,2.17a13.06,13.06,0,0,0-.9-1.3h0A8.32,8.32,0,0,0,156,61.84a16.32,16.32,0,0,1-1.9-1.61,7,7,0,0,0-1.3-1.06,3.58,3.58,0,0,1-.59-.36A8.07,8.07,0,0,1,150,56.6a23.33,23.33,0,0,0-3.7-2.9l-1.13-1.31-1.29-1.51,3.3-3.29,1,1.35,1.45,2a12.72,12.72,0,0,0,2.22,2.18,15.61,15.61,0,0,1,2.27,2A21.68,21.68,0,0,1,156.91,59L159,61.93v0l.33.46Z"/><path class="cls-2" d="M139.05,62.87l-1.28,3.06-1.05-1.13-.43-.9-.37-.79L134.07,62l-1.81-1.18a3.72,3.72,0,0,0-1-.47C129.69,59.89,130,59,130,59l.14-2.28.1-1.58,4.27-.48-.21,1.2L134,57.4c1.61.24,2.65,2.9,2.65,2.9a4,4,0,0,0,1.58,1.5.88.88,0,0,0,.27.1Z"/><path class="cls-3" d="M159,62l0,0h0Z"/><path class="cls-3" d="M159.49,62.63l-1,2.17a13.06,13.06,0,0,0-.9-1.3c.15.14,1,.89,1.24.2a6.52,6.52,0,0,1,.35-.82.94.94,0,0,0,.12-.47Z"/><path class="cls-3" d="M159.41,62.49l-.33-.46,0,0L157,59.09a21.74,21.74,0,0,0-2.83-3.84,14.52,14.52,0,0,0-2.27-2,13.47,13.47,0,0,1-2.22-2.18l-1.44-2-1-1.36-.14.14L148,49l1.44,2a13.09,13.09,0,0,0,2.23,2.17,14.45,14.45,0,0,1,2.26,2,21.74,21.74,0,0,1,2.83,3.84L158.83,62v0l.33.46.16.23-.86,1.94.14.23,1-2.17Z"/><path class="cls-3" d="M139.05,62.87l-1.28,3.06-1.05-1.13-.43-.9,1.24.82c1.21-.76.74-2.7.69-2.91a2.15,2.15,0,0,0,.27.1Z"/><path class="cls-9" d="M138.29,61.87s.6,2.13-.68,2.93l-1.69-1.12s-.33.8.72,1.85a3.41,3.41,0,0,1,1.13,2.81s.16,1.93,1.13,1.45c0,0,1.52-.33,1.44-3,0,0-.61-2.21.1-3.15l.06-.07c.81-.89-.24-2.25-.24-2.25S138.37,60.58,138.29,61.87Z"/><path class="cls-3" d="M140.18,40c-.88,0-.8,1.21-1.93,1.45s-5.07,1.93-6.27,1.21a6.56,6.56,0,0,1-2-2.26v-.16a6,6,0,0,0,4.5,0c1.78.34,4.84-2,5.71-2.7v0S141.06,40,140.18,40Z"/><path class="cls-3" d="M130.21,55.15l4.27-.48-.22,1.2a12.79,12.79,0,0,1-4.15.87Z"/><path class="cls-3" d="M148.15,49c-.2,1.48-1.86,2.74-3,3.45l-1.29-1.51,3.3-3.3Z"/><path class="cls-10" d="M134.47,40.43a6,6,0,0,1-4.51,0l-.4,5.47a19.06,19.06,0,0,1-.24,3.78c-.32,1.36.24,6.92.24,6.92s5-.08,5.95-1.93c0,0,2.09-4.19,1.69-5.63l4.35,1,2.57,2.81s4.43-2.09,4-4.66l-6-7-1.77-3.61S136.56,40.83,134.47,40.43Z"/><path class="cls-11" d="M144.12,52.81,141.55,50l-4.35-1,0,.11a1.79,1.79,0,0,1,0,.23c.07,1.68-1.73,5.29-1.73,5.29-1,1.85-6,1.93-6,1.93s-.57-5.55-.24-6.92a18.28,18.28,0,0,0,.24-3.78l.39-5.26v-.2a4.4,4.4,0,0,0,1.81.45,6.81,6.81,0,0,0,2.61-.42l.09,0,.14,0c1.73.19,4.5-1.87,5.47-2.64l.34-.28,1.77,3.61,5.95,7a2,2,0,0,1,0,.24C148.27,50.86,144.12,52.81,144.12,52.81Z"/><path class="cls-6" d="M138.83,21.37c-1.8,3.23-4.44,1.44-5.17.85l.25,0a3.52,3.52,0,0,0,2.11.63,4,4,0,0,1,.49,0c1.36.19,1.77-1.61,1.77-1.61Z"/><path class="cls-9" d="M159.05,62a1.59,1.59,0,0,1,1.4.7s2.09,1.76,3.22,1.93c0,0,3.38,1.45,2.41,3.46s-3.3.16-3.3.16-2.49-2.25-3.29-2.09c0,0-2.22-1.33-1.81-2.61,0,0,1,1,1.26.22a8.41,8.41,0,0,1,.35-.82C159.44,62.65,159.52,62.25,159.05,62Z"/><path class="cls-3" d="M133.94,40.45a5.58,5.58,0,0,1-4-.18l0,.36A6.22,6.22,0,0,0,133.94,40.45Z"/><path class="cls-3" d="M135.77,40.17a3,3,0,0,1-1.3.11l-.47.16A3.64,3.64,0,0,0,135.77,40.17Z"/><path class="cls-3" d="M148.17,48.4c-.08,2.38-4,4.26-4,4.26l-.05-.06c1.1-.61,3.92-2.37,3.59-4.45l-5.95-7-1.63-3.34.34-.28,1.77,3.62,5.95,7A1.15,1.15,0,0,1,148.17,48.4Z"/><path class="cls-3" d="M136.72,49c.41,1.44-1.69,5.63-1.69,5.63a3,3,0,0,1-1.67,1.22,3.51,3.51,0,0,0,2.16-1.39s1.85-3.71,1.73-5.35Z"/><path class="cls-6" d="M135.35,28.16c-1.13,0-2,1.32-2,2.94s.92,2.94,2,2.94,2.06-1.32,2.06-2.94S136.49,28.16,135.35,28.16Zm0,4.67c-.66,0-1.2-.77-1.2-1.73s.54-1.73,1.2-1.73,1.21.77,1.21,1.73S136,32.83,135.35,32.83Z"/><path class="cls-12" d="M148.8,7.44v.28a.76.76,0,0,1,0,.15,5,5,0,0,1-.82,2.36l-.1.14a4.84,4.84,0,0,1-3.94,2h-.33l-.3,0h0a4.89,4.89,0,0,1-3.44-2.19.67.67,0,0,1-.07-.11h0a5.06,5.06,0,0,1-.74-2.62,4.62,4.62,0,0,1,.06-.74l0-.16A5,5,0,0,1,141.74,3l.18-.09a4.77,4.77,0,0,1,3.69-.14,3.71,3.71,0,0,1,.46.19h0a5,5,0,0,1,2.39,2.61.36.36,0,0,1,0,.11A4.79,4.79,0,0,1,148.8,7.44Z"/><path class="cls-13" d="M148.49,5.68a3.55,3.55,0,0,1-1,.14h-.18l-.23,0a4.14,4.14,0,0,1-1.79-.66h0A7.4,7.4,0,0,0,141.73,3l.17-.09a7.41,7.41,0,0,1,3.22,1.84,3.36,3.36,0,0,0,1.12.7,4,4,0,0,0,.9.22h.32a3.32,3.32,0,0,0,1-.12A.36.36,0,0,0,148.49,5.68Z"/><path class="cls-13" d="M148.79,7.72a.76.76,0,0,1,0,.15,7.21,7.21,0,0,0-1.34-.65l-.12,0a17,17,0,0,0-3.45-.76c-2.76-.35-4.14,0-4.79.29l0-.16c.71-.32,2.11-.6,4.78-.26a16.85,16.85,0,0,1,3.45.75l.13,0A6.78,6.78,0,0,1,148.79,7.72Z"/><path class="cls-13" d="M147.46,7.09a.59.59,0,0,1,0,.13c0,.23-.07.46-.12.71s-.08.36-.13.53a.93.93,0,0,0,0,.13,5.71,5.71,0,0,1-2.9,3.52,4.88,4.88,0,0,1-.66.29l-.3,0h0a6.1,6.1,0,0,0,.92-.37,5.61,5.61,0,0,0,2.84-3.48l0-.12c0-.16.09-.33.13-.5s.09-.48.12-.72a.59.59,0,0,1,0-.13,6.32,6.32,0,0,0,0-1.23.69.69,0,0,0,0-.13,4.13,4.13,0,0,0-1.09-2.36,4.44,4.44,0,0,0-.66-.56L146,3h0a2.54,2.54,0,0,1,.29.28,4.24,4.24,0,0,1,1.12,2.45s0,.08,0,.12A6,6,0,0,1,147.46,7.09Z"/><path class="cls-13" d="M148,10.24l-.09.14a6.45,6.45,0,0,0-.66-1.71l-.06-.08a.41.41,0,0,0-.11-.07c-.63-.31-2.52.21-3.92,1a7.42,7.42,0,0,1-3.27.69l-.08-.11h0a7.44,7.44,0,0,0,3.29-.68c1.31-.71,3.27-1.31,4-1a.41.41,0,0,1,.11.07.44.44,0,0,1,.13.14A6.28,6.28,0,0,1,148,10.24Z"/><path class="cls-14" d="M73.88,175.18a1.62,1.62,0,0,1,0,.22,2,2,0,0,1-.15.47,1.62,1.62,0,0,1-.31.43l0,0a1.57,1.57,0,0,1-.9.39h-.14a1.57,1.57,0,0,1-1.55-1.36,1.27,1.27,0,0,1,0-.2,2.45,2.45,0,0,1,0-.27,1.63,1.63,0,0,1,.16-.47l.12-.19a1.59,1.59,0,0,1,1.26-.64h.16a1.57,1.57,0,0,1,.47.13,1.36,1.36,0,0,1,.38.24l.09.08a1.42,1.42,0,0,1,.29.39,1.36,1.36,0,0,1,.15.47A1,1,0,0,1,73.88,175.18Z"/><rect class="cls-15" x="72.95" y="174.46" width="0.47" height="0.47" transform="translate(-101.9 246.93) rotate(-89.69)"/><path class="cls-15" d="M73.88,175.18a1.62,1.62,0,0,1,0,.22h-.46v-.47h.44A1,1,0,0,1,73.88,175.18Z"/><path class="cls-15" d="M73.72,175.87a1.62,1.62,0,0,1-.31.43v-.43Z"/><path class="cls-15" d="M71.54,173.82V174h-.22Z"/><path class="cls-15" d="M72.48,173.62V174H72v-.33a1.1,1.1,0,0,1,.31,0Z"/><path class="cls-15" d="M73.33,174H73v-.23A1.36,1.36,0,0,1,73.33,174Z"/><path class="cls-15" d="M71.06,174.25v.19h-.12Z"/><rect class="cls-15" x="71.54" y="173.98" width="0.47" height="0.47" transform="translate(-102.82 245.05) rotate(-89.69)"/><rect class="cls-15" x="72.48" y="173.98" width="0.47" height="0.47" transform="translate(-101.89 245.99) rotate(-89.69)"/><path class="cls-15" d="M73.71,174.46h-.29v-.39A1.42,1.42,0,0,1,73.71,174.46Z"/><rect class="cls-15" x="71.06" y="174.45" width="0.47" height="0.47" transform="translate(-103.76 245.04) rotate(-89.69)"/><rect class="cls-15" x="72" y="174.45" width="0.47" height="0.47" transform="translate(-102.83 245.98) rotate(-89.69)"/><rect class="cls-15" x="71.53" y="174.92" width="0.47" height="0.47" transform="translate(-103.77 245.98) rotate(-89.69)"/><rect class="cls-15" x="72.47" y="174.92" width="0.47" height="0.47" transform="translate(-102.84 246.92) rotate(-89.69)"/><path class="cls-15" d="M71.06,174.92v.47h-.29a1.27,1.27,0,0,1,0-.2,2.45,2.45,0,0,1,0-.27Z"/><rect class="cls-15" x="71.06" y="175.39" width="0.47" height="0.47" transform="translate(-104.71 245.97) rotate(-89.69)"/><rect class="cls-15" x="72" y="175.39" width="0.47" height="0.47" transform="matrix(0.01, -1, 1, 0.01, -103.78, 246.92)"/><rect class="cls-15" x="72.94" y="175.4" width="0.47" height="0.47" transform="matrix(0.01, -1, 1, 0.01, -102.85, 247.86)"/><path class="cls-15" d="M71.06,175.86v.23a1.76,1.76,0,0,1-.14-.23Z"/><rect class="cls-15" x="71.53" y="175.86" width="0.47" height="0.47" transform="matrix(0.01, -1, 1, 0.01, -104.72, 246.91)"/><rect class="cls-15" x="72.47" y="175.87" width="0.47" height="0.47" transform="translate(-103.79 247.86) rotate(-89.69)"/><path class="cls-15" d="M71.52,176.33v.19l-.25-.19Z"/><path class="cls-15" d="M72.47,176.34v.39h-.14a1.24,1.24,0,0,1-.33,0v-.37Z"/><path class="cls-15" d="M73.36,176.34a1.44,1.44,0,0,1-.42.27v-.27Z"/><path class="cls-16" d="M88,154.9l1.88,7.32a58.61,58.61,0,0,0,.49,7.18c.42,2,1.81,6.9,1.81,6.9l1.67.28-.34-6.83a29,29,0,0,0-.35-5c-.35-.91-1-10.18-1-10.18Z"/><path class="cls-3" d="M88,154.9l1.88,7.32a58.61,58.61,0,0,0,.49,7.18c.42,2,1.81,6.9,1.81,6.9l1.67.28-.34-6.83a29,29,0,0,0-.35-5c-.35-.91-1-10.18-1-10.18Z"/><path class="cls-17" d="M93.19,124.22h0A4.45,4.45,0,0,0,89,128.89v3.27h1l.58-1.21-.15,1.21H96.9l.53-1.1-.13,1.1H98v-2.57A5.13,5.13,0,0,0,93.19,124.22Z"/><path class="cls-16" d="M86.19,153.75s-.84,3.56.28,3.9.84-3.9.84-3.9Z"/><polygon class="cls-18" points="87.58 135.69 87.03 136.32 87.17 148.38 85.91 154.1 88.7 154.38 90.09 142.87 89.68 137.02 87.58 135.69"/><polygon class="cls-11" points="87.58 135.69 87.03 136.32 87.17 148.38 85.91 154.1 88.7 154.38 90.09 142.87 89.68 137.02 87.58 135.69"/><circle class="cls-16" cx="92.81" cy="128.71" r="3"/><path class="cls-16" d="M91.1,130.51s.88,4.55.48,5,4.23-.88,4.23-.88-1.52-3.11-.72-4.87Z"/><path class="cls-16" d="M98.67,150.47s.84,3.56-.28,3.91-.84-3.91-.84-3.91Z"/><path class="cls-16" d="M92.22,154.06s-1.18,7.11-1.11,8.16a3.82,3.82,0,0,1,0,1.19,39.55,39.55,0,0,0-1.54,4.81,38.65,38.65,0,0,1-1.11,4s-.91,2-.14,2a8.74,8.74,0,0,0,1.81-.28,3.58,3.58,0,0,1,.77-2.22,33.18,33.18,0,0,0,3.34-6.63,18.46,18.46,0,0,1,.42-2.44l1.6-7.74Z"/><path class="cls-17" d="M87.34,149.32s-1.18,6-.14,6.14,2.51-.91,4.39.28,5,.9,5,.9,2.16-5.5.21-6.83S87.34,149.32,87.34,149.32Z"/><path class="cls-9" d="M88.67,173.37a1.78,1.78,0,0,1,1-.13,1.33,1.33,0,0,0,.91-.21,12.76,12.76,0,0,0-.49,2.78c.07.77-.21,4.05-1.67,3.7s-1.89-1.39-1.33-3.21a12.43,12.43,0,0,0,.42-3.9s1-1.05,1.21-.91S88.67,173.37,88.67,173.37Z"/><path class="cls-9" d="M93.34,176s-.7-1.53-1.54-.14a8.18,8.18,0,0,0-.9,1.75s-2.37,2.16-.7,2.37,3-.07,3-.42.83-.28.9-.56-.14-2.86-.14-2.86Z"/><path class="cls-5" d="M94.91,132.84h0a30.39,30.39,0,0,1-3.28.48l-.24,0a3.52,3.52,0,0,0-2,.48c-1,.56-2.41,1.57-2.41,2.54,0,1.47,1.88,4,1.88,4s-1.74,6-1.6,6.56-1,2.44-.28,3.07,8.08,0,9.41.62.7-8.36.7-8.36,3.55-8.16,1.74-8.93c-.59-.24-1.09-.43-1.51-.58A3.14,3.14,0,0,0,94.91,132.84Z"/><path class="cls-5" d="M97.62,133.32l1.6.27s.7.71.7,1.06-.13,15.41-.34,15.89-2.51.28-2.51.28l.41-8.57Z"/><path class="cls-17" d="M94.38,125.51a2.18,2.18,0,0,0-1.74-.89h-.08a3.06,3.06,0,0,0-2.88,3.22h.53l.09-.66.12.66h3.17l.26-.56-.06.56h.62a5.21,5.21,0,0,1-1.25,4.32h1.06l.53-1.11-.14,1.11h2l.39-2.55A4.3,4.3,0,0,0,94.38,125.51Z"/><circle class="cls-17" cx="94.96" cy="124.2" r="1.58"/><path class="cls-18" d="M86.71,156.89l-.16-.07-5.68,14.39c-.27-.57-1.23-2-4-2.13a.56.56,0,0,0-.56.51l0,.72A1.54,1.54,0,0,0,77.61,172c1.14.13,2.64.15,3.32-.49h0Z"/><path class="cls-19" d="M78.15,51.17a2.72,2.72,0,0,1-2,2.74c-2,.44.83,1.78,2,1.46S84,50.91,84,50.91s-1.66-2.55-2.74-2.55C81.27,48.36,79.3,51.68,78.15,51.17Z"/><path class="cls-19" d="M68.9,49.83s.13,2.1-3,3.31c0,0-3.25.32-1,1.92s9-.45,9-.45a12,12,0,0,0-.9-3.7S69.29,50.66,68.9,49.83Z"/><path class="cls-20" d="M93.28,5.78C92.3,4.62,90.2,9,90.2,9L82.55,10.7a2.55,2.55,0,0,1-1.24-.85A3.52,3.52,0,0,0,84.5,8.09l-2-.11a1.5,1.5,0,0,1-.59-.1c-.37-.17-.54-.59-.74-1A4.67,4.67,0,0,0,78.7,4.8,7.75,7.75,0,0,1,76.6,4a6.79,6.79,0,0,1-1.09-1.18C73.83.91,71.05.38,68.49,0a1.63,1.63,0,0,0-1.31.2c-.24.21-.33.53-.53.77a2.47,2.47,0,0,1-1.46.58,5,5,0,0,0-1.87.71,2.39,2.39,0,0,0-1,1.63c-.1,1,.63,2,.5,3,0,.31-.17.6-.18.91a2.82,2.82,0,0,0,.14.86,6.21,6.21,0,0,1,.24,2.6,2.61,2.61,0,0,1-1.51,2,4.57,4.57,0,0,0,3.14-.43,3.21,3.21,0,0,0,1.65-2.58v-.08l.11,0c0,.06,0,.13,0,.19l.16.05a3.7,3.7,0,0,1,0,1.15l-1.15.91a1.29,1.29,0,0,0,0,.19h0a.86.86,0,0,0,0,.15l-2.25,1.4a8.93,8.93,0,0,0-3.08,4.39l-2,3.17a8,8,0,0,1-2,1.43l-6.11,5.3s-2.11,1.15-2.1,2.3h0V31h0V31h0a.13.13,0,0,0,0,.06h0s0,0,0,.07h0s0,0,0,.06h0l0,.06h0l0,.06v0l0,.05v0l0,.05,0,0,0,0,0,0,0,0,0,0,.06,0,0,0,.06.05,0,0,.06.05,0,0,.11.06c2.36,1.36,3-2.13,3-2.13l7.09-4.66s5.85-5.3,5.85-6.46l1.27.55,0,.22v.2s-.06,2.72,3.35,3.42c0,0,3.13,3.14,3.22,4.13v.08A7.41,7.41,0,0,0,73.21,30L72,31l0,.18h0l.05.64a40.85,40.85,0,0,0-3.66,4.27,5.89,5.89,0,0,0,.46,4.2L69.67,48v2.24l-.4-.18v.51a.9.9,0,0,1-.46-.38v.07h0c0,.37-.21,2.19-3.08,3.29,0,0-1.91.18-1.86,1,0,.26.19.6.81,1,2.29,1.62,9.25-.45,9.25-.45v-.06h0A11.94,11.94,0,0,0,73,51.32l-.46,0V50.8l-.29,0a12.16,12.16,0,0,1,.27-2.69,21.24,21.24,0,0,0,.38-6.26A7.62,7.62,0,0,0,74,42.92l4.15,6.57.49,1c-.18.13-.36.24-.51.34l.83.77a.83.83,0,0,1-.58,0,2.78,2.78,0,0,1-2,2.78c-.83.18-.87.5-.53.8a3.49,3.49,0,0,0,2.63.75c1.19-.33,6-4.53,6-4.53A11.93,11.93,0,0,0,83,49.63a2.46,2.46,0,0,0-1.43-.87s-.1.17-.27.42l-.52-.48,0,0a3.45,3.45,0,0,1-.12-.43,20.4,20.4,0,0,0-4.09-8.11s-.61-.5.33-2.16c0,0,1.52-1.81,2.85-3.76a6,6,0,0,0,5.42-1.17l0-.12.08-.07-.66-4.08s.3-3.84-4.49-7a20,20,0,0,1-3.52-7.27h0l0-.7c.59.45,6.9-.39,6.9-.39l8.34-3.49a5.42,5.42,0,0,0,1.79-3.36A1.35,1.35,0,0,0,93.28,5.78Z"/><path class="cls-21" d="M81,10a2.52,2.52,0,0,0,1.79.94A5.74,5.74,0,0,1,81,12.07a6.29,6.29,0,0,1-6-.74,3.55,3.55,0,0,0-1.27-.78,6.94,6.94,0,0,0-1.29,0A2.58,2.58,0,0,1,70,8.6c-.12-.53-.07-1.09-.16-1.63l-.06-.27a2.31,2.31,0,0,0-2.44-1.62c-.95.25-1.43,1.73-1.41,2.58s.47,1.83.44,2.76A3.14,3.14,0,0,1,64.78,13a4.34,4.34,0,0,1-3,.42,2.58,2.58,0,0,0,1.46-2A6.24,6.24,0,0,0,63,8.82,2.7,2.7,0,0,1,62.83,8c0-.31.14-.6.18-.91.14-1-.58-1.94-.48-2.93a2.3,2.3,0,0,1,1-1.6,4.62,4.62,0,0,1,1.81-.7,2.31,2.31,0,0,0,1.42-.58c.2-.23.29-.55.52-.76A1.58,1.58,0,0,1,68.56.3c2.49.33,5.18.85,6.81,2.77a7.3,7.3,0,0,0,1.06,1.16,7.46,7.46,0,0,0,2,.76,4.53,4.53,0,0,1,2.42,2.1,1.86,1.86,0,0,0,.72.94,1.6,1.6,0,0,0,.57.11l1.91.1A3.4,3.4,0,0,1,81,10Z"/><path class="cls-22" d="M71.36,10a9.05,9.05,0,0,0,2.77-.35,5,5,0,0,1,3.7,1l3.89.32,7.91-1.85s2-4.28,3-3.13-.89,3.83-1.46,4.15l-8.11,3.44s-6.12.83-6.69.38l-.13,1.72-3.06-1.46-1.33-3.13Z"/><path class="cls-19" d="M91.16,10l-8.1,3.45s-6.12.83-6.7.38l-.12,1.72-3.06-1.46L71.84,11l-.42-.92h-.06l.48,1.05,1.34,3.13,3.06,1.46L76.36,14c.58.45,6.7-.38,6.7-.38l8.1-3.45A5.26,5.26,0,0,0,92.89,6.8,5.39,5.39,0,0,1,91.16,10Z"/><path class="cls-22" d="M66,12.72l-2.61,1.66a8.84,8.84,0,0,0-3,4.33l-2,3.13a7.47,7.47,0,0,1-2,1.4l-5.93,5.23s-3.57,2-1.27,3.31,2.87-2.1,2.87-2.1L59,25.09s5.68-5.23,5.68-6.38l2,.89Z"/><path class="cls-19" d="M64.69,18.59C64.69,19.73,59,25,59,25l-6.89,4.59s-.58,3.45-2.87,2.11a1.29,1.29,0,0,1-.77-1c0,.38.18.77.77,1.12,2.29,1.34,2.87-2.11,2.87-2.11L59,25.09s5.67-5.23,5.67-6.38l2,.9,0-.14Z"/><path class="cls-22" d="M73.65,31.89s-2,6.33-1.94,7.16a6,6,0,0,0,2.19,3.54l4,6.49,1.24,2.58L81.6,51a14.76,14.76,0,0,1-1.26-3.07,20.15,20.15,0,0,0-4-8s-.59-.49.32-2.13c0,0,4.49-5.4,4.64-7.59Z"/><path class="cls-19" d="M73.65,31.89s-2,6.33-1.94,7.16a6,6,0,0,0,2.19,3.54l4,6.49,1.24,2.58L81.6,51a14.76,14.76,0,0,1-1.26-3.07,20.15,20.15,0,0,0-4-8s-.59-.49.32-2.13c0,0,4.49-5.4,4.64-7.59Z"/><path class="cls-3" d="M73.37,30.32s-4.54,4.84-4.85,5.61A5.93,5.93,0,0,0,69,40.07l.83,7.59v2.87l2.48.44a14.47,14.47,0,0,1,.19-3.31,20.22,20.22,0,0,0-.12-8.93S72,38,73.56,36.94c0,0,6.38-2.93,7.46-4.84Z"/><path class="cls-22" d="M73.3,30.32s-4.53,4.84-4.84,5.61a6,6,0,0,0,.44,4.14l.83,7.59v2.87l2.49.44a13.86,13.86,0,0,1,.19-3.31,20.13,20.13,0,0,0-.13-8.93S72,38,73.49,36.94c0,0,6.38-2.93,7.46-4.84Z"/><path class="cls-19" d="M73.34,30.32l0,0,7.49,1.76C79.71,34,73.34,37,73.34,37c-1.54,1.09-1.22,1.79-1.22,1.79a20.07,20.07,0,0,1,.13,8.92A13.82,13.82,0,0,0,72.06,51l.19,0a14,14,0,0,1,.19-3.32,20.08,20.08,0,0,0-.13-8.92S72,38,73.53,37c0,0,6.37-2.93,7.46-4.84Z"/><path class="cls-22" d="M66.36,9.59a3.5,3.5,0,0,1,0,3.26l.89,4.59,3.7-.51,1.79-2L71.33,10s-1.15.45-1.27-2.67Z"/><path class="cls-3" d="M65.59,12.85A26.77,26.77,0,0,0,66.16,17l-.26,2.68s-.06,2.68,3.26,3.38c0,0,3.18,3.25,3.12,4.15a8.16,8.16,0,0,0,1,2.8L72,31.09,72,32l.89-.89s7.72,5.67,11.8,1.85l-.64-4s.54-3.41-4.11-6.47a21.73,21.73,0,0,1-3.67-7.56s-2.55-.25-3.19-1.21L71.84,9.86l-1,.22,1,4.24s-1.15,3.82-4.34,2.18L66.72,12Z"/><path class="cls-5" d="M65.59,12.66a26.93,26.93,0,0,0,.57,4.14l-.26,2.68s-.06,2.68,3.26,3.38c0,0,3.18,3.25,3.12,4.14a8.15,8.15,0,0,0,1,2.81L72,30.9l.06.89.89-.89s7.72,5.67,11.8,1.84l-.64-4s.29-3.79-4.37-6.86A19.73,19.73,0,0,1,76.3,14.7s-2.55-.25-3.19-1.21L71.84,9.66l-1,.23,1,4.24S70.63,18,67.44,16.3l-.72-4.53Z"/><rect class="cls-23" x="31.72" y="28.69" width="10.22" height="0.06"/><rect class="cls-23" x="31.98" y="28.25" width="9.71" height="0.06"/><rect class="cls-23" x="32.17" y="27.8" width="8.88" height="0.06"/><rect class="cls-23" x="32.49" y="27.35" width="7.86" height="0.06"/><rect class="cls-23" x="32.94" y="26.91" width="6.71" height="0.06"/><rect class="cls-23" x="33.51" y="26.46" width="5.37" height="0.06"/><rect class="cls-23" x="34.4" y="26.01" width="3.33" height="0.06"/><rect class="cls-23" x="31.53" y="29.2" width="10.79" height="0.06"/><rect class="cls-23" x="31.53" y="29.71" width="10.98" height="0.06"/><rect class="cls-23" x="31.34" y="30.22" width="11.3" height="0.06"/><rect class="cls-23" x="31.34" y="30.73" width="11.45" height="0.06"/><rect class="cls-23" x="31.34" y="31.24" width="11.39" height="0.06"/><rect class="cls-23" x="31.47" y="31.75" width="11.07" height="0.06"/><rect class="cls-23" x="31.72" y="32.26" width="10.49" height="0.06"/><rect class="cls-23" x="31.72" y="32.77" width="10.05" height="0.06"/><rect class="cls-23" x="32.17" y="33.28" width="9.03" height="0.06"/><rect class="cls-23" x="32.62" y="33.79" width="7.88" height="0.06"/><rect class="cls-23" x="33.13" y="34.3" width="6.61" height="0.06"/><rect class="cls-23" x="34.15" y="34.81" width="4.69" height="0.06"/><rect class="cls-23" x="32.67" y="27.17" width="0.06" height="6.76"/><rect class="cls-23" x="32.29" y="27.68" width="0.06" height="5.81"/><rect class="cls-23" x="31.91" y="28.25" width="0.06" height="4.73"/><rect class="cls-23" x="31.53" y="29.15" width="0.06" height="3"/><rect class="cls-23" x="33.18" y="26.73" width="0.06" height="7.66"/><rect class="cls-23" x="33.69" y="26.41" width="0.06" height="8.23"/><rect class="cls-23" x="34.2" y="26.15" width="0.06" height="8.68"/><rect class="cls-23" x="34.72" y="25.96" width="0.06" height="9.06"/><rect class="cls-23" x="35.23" y="25.77" width="0.06" height="9.44"/><rect class="cls-23" x="35.74" y="25.77" width="0.06" height="9.44"/><rect class="cls-23" x="36.25" y="25.77" width="0.06" height="9.44"/><rect class="cls-23" x="36.75" y="25.77" width="0.06" height="9.44"/><rect class="cls-23" x="37.27" y="25.96" width="0.06" height="9.25"/><rect class="cls-23" x="37.78" y="26.09" width="0.06" height="9.06"/><rect class="cls-23" x="38.29" y="26.22" width="0.06" height="8.81"/><rect class="cls-23" x="38.8" y="26.47" width="0.06" height="8.3"/><rect class="cls-23" x="39.31" y="26.73" width="0.06" height="7.85"/><rect class="cls-23" x="39.82" y="27.17" width="0.06" height="7.15"/><rect class="cls-23" x="40.33" y="27.36" width="0.06" height="6.57"/><rect class="cls-23" x="40.84" y="27.75" width="0.06" height="5.87"/><rect class="cls-23" x="41.35" y="28.19" width="0.06" height="5.04"/><rect class="cls-23" x="41.86" y="28.57" width="0.06" height="4.09"/><rect class="cls-23" x="42.37" y="29.4" width="0.06" height="2.68"/><path class="cls-24" d="M36.36,35.4a5.63,5.63,0,0,1-1.68-.23,4.65,4.65,0,0,1-2.95-2.33,4.91,4.91,0,0,1-.36-3.39A4.72,4.72,0,0,1,37,25.74l.11,0a7.84,7.84,0,0,1,3,1.29c5.18,3.65,6.35,3.16,6.35,3.16l.19-.11v.81l-.14,0c-1.7-.18-4.35,1.77-5.79,2.94a6.89,6.89,0,0,1-3.79,1.55A5.43,5.43,0,0,1,36.36,35.4ZM36,25.9a4.48,4.48,0,0,0-4.36,3.61,4.4,4.4,0,0,0,3.14,5.42,6.28,6.28,0,0,0,2.16.2,6.59,6.59,0,0,0,3.64-1.5c1.43-1.17,4.05-3.08,5.84-3v-.16c-.5.06-2.09-.16-6.43-3.21A7.55,7.55,0,0,0,37,26l-.1,0a6,6,0,0,0-1-.08Z"/><path class="cls-24" d="M46.14,29.87h5.48a.64.64,0,0,1,.64.64h0a.64.64,0,0,1-.64.63H46.14V29.87Z"/><rect class="cls-25" x="46.14" y="29.87" width="0.77" height="1.28"/><path class="cls-24" d="M41.15,33.48,41,33.27a3.25,3.25,0,0,0,1.63-2.54A4.12,4.12,0,0,0,41,28l.15-.2a4.23,4.23,0,0,1,1.74,3A3.49,3.49,0,0,1,41.15,33.48Z"/><path class="cls-3" d="M70.32,9.52a5.6,5.6,0,0,1-.4-2.09L66.23,9.72a2.9,2.9,0,0,1,.31.85A3.57,3.57,0,0,0,70.32,9.52Z"/><circle class="cls-22" cx="67.75" cy="7.04" r="3.57"/><path class="cls-3" d="M67.59,6.16c.36.15.6.49,1,.67a5.8,5.8,0,0,0,1.64.22c.62.12,1.19.55,1.81.49a1.54,1.54,0,0,0,1.27-1.6,2.49,2.49,0,0,0-1.12-1.86,7.52,7.52,0,0,0-2-.9,5.44,5.44,0,0,0-2.83-.39c-.87.2-3.23,1.36-3.1,2.46C64.35,7,66.68,5.8,67.59,6.16Z"/><path class="cls-21" d="M67.59,6c.36.14.6.49,1,.66a6.19,6.19,0,0,0,1.64.23c.62.11,1.19.54,1.81.48a1.53,1.53,0,0,0,1.27-1.6A2.45,2.45,0,0,0,72.14,4a7.26,7.26,0,0,0-2-.91,5.33,5.33,0,0,0-2.83-.38c-.87.2-3.23,1.36-3.1,2.45C64.35,6.88,66.68,5.67,67.59,6Z"/><path class="cls-3" d="M72.89,27.22a4.92,4.92,0,0,0,.7,2.11"/><path class="cls-3" d="M79.39,22.06a2,2,0,0,1-.32,1.4"/><path class="cls-3" d="M76.34,18a4.79,4.79,0,0,1-2.1,1.91"/><g class="cls-26"><path class="cls-8" d="M67.05,16.48a2.67,2.67,0,0,0,2.64.13,2.83,2.83,0,0,1-2.19-.32l-.72-4.53-.43.34Z"/><path class="cls-8" d="M71.45,9.85l1.27,3.83c.64,1,3.19,1.21,3.19,1.21a19.83,19.83,0,0,0,3.41,7.17c4.66,3.06,4.37,6.86,4.37,6.86l.64,4a5.1,5.1,0,0,1-1.16.8,4.73,4.73,0,0,0,1.6-1l-.63-4s.29-3.79-4.37-6.85a19.83,19.83,0,0,1-3.41-7.17s-2.55-.26-3.19-1.22L71.9,9.66l-1.05.22,0,.09Z"/><path class="cls-8" d="M72.53,31.08l-.46.47v.23l.6-.59Z"/></g><path class="cls-3" d="M75.18,29.07s2.68-1.84,4.85-1.84"/><path class="cls-3" d="M69.7,22.38a7.81,7.81,0,0,0,2-1.72"/><path class="cls-22" d="M50.32,29.2s-.77,1-.39,1.27,1.34-1.08,1.34-1.08Z"/><path class="cls-27" d="M22.7,30.38A1.61,1.61,0,0,0,21.09,32h0v.16a.19.19,0,0,0,0,.08v0h0a1.56,1.56,0,0,0,.54.95l.06.05a1.62,1.62,0,0,0,2-2.55,1.63,1.63,0,0,0-1-.34Z"/><path class="cls-28" d="M21.78,33.18A1.5,1.5,0,1,0,21.2,32a.38.38,0,0,0,0,.15.25.25,0,0,0,0,.08v0h0a1.5,1.5,0,0,0,.51.89Z"/><path class="cls-25" d="M21.78,33.18h0c0-.21.61-.54,1.09-.81s.82-.47.87-.63-.13-.43-.35-.56a.68.68,0,0,0-.87,0,7.49,7.49,0,0,1-1.36.94v.1h0a7.89,7.89,0,0,0,1.42-1,.59.59,0,0,1,.74,0c.22.15.34.33.3.44a2.66,2.66,0,0,1-.83.57c-.52.3-1.05.61-1.12.87Z"/><path class="cls-25" d="M80.51,48.3a21.06,21.06,0,0,1-2.6,2.1l.88.83,2.81-.38V49.32Z"/><polygon class="cls-25" points="69.92 49.96 69.35 49.7 69.35 51.36 72.54 51.87 72.54 50.4 69.92 49.96"/><path class="cls-19" d="M68.9,49.7s.13,2.11-3,3.32c0,0-3.25.32-1,1.91s9-.44,9-.44a11.91,11.91,0,0,0-.9-3.7S69.29,50.54,68.9,49.7Z"/><path class="cls-9" d="M68.9,49.88S69,52,65.9,53.2c0,0-3.25.32-1,1.91s9-.44,9-.44A12,12,0,0,0,73,51S69.29,50.72,68.9,49.88Z"/><path class="cls-19" d="M78.21,51.05a2.72,2.72,0,0,1-2,2.74c-2,.45.83,1.79,2,1.47s5.87-4.47,5.87-4.47-1.66-2.54-2.74-2.54C81.34,48.25,79.36,51.56,78.21,51.05Z"/><path class="cls-9" d="M78.21,51.23s.07,2.3-2,2.74.83,1.79,2,1.47S84.08,51,84.08,51s-1.66-2.54-2.74-2.54C81.34,48.43,79.36,51.74,78.21,51.23Z"/><path class="cls-9" d="M134.54,128.85a3.1,3.1,0,0,0,1.11,2.28A1.77,1.77,0,0,0,138,131a2.68,2.68,0,0,0,.39-.86,7,7,0,0,0,.28-4.43c-1.12-.07-2.42-.6-3.27.33A3.88,3.88,0,0,0,134.54,128.85Z"/><path class="cls-29" d="M139.76,120.06a27.17,27.17,0,0,0-.38,3.81c0,.49.06,1,.06,1.47a7.15,7.15,0,0,1-1,3.66,1,1,0,0,1-.27.34.85.85,0,0,1-.93,0,1.88,1.88,0,0,1-.67-.73c-.81-1.39-.83-3.08-1.15-4.65-.25-1.21-.68-2.38-.84-3.6-.1-.78-.08-1.58-.24-2.36-.05-.23-.19-.59-.28-.93a1.38,1.38,0,0,1,0-.82c.17-.43.74-.26,1.11-.23a26.72,26.72,0,0,0,3.9,0,.47.47,0,0,1,.37.07.35.35,0,0,1,.08.16,4.5,4.5,0,0,1,.24.87A9.79,9.79,0,0,1,139.76,120.06Z"/><g class="cls-7"><path class="cls-8" d="M139.26,116.05h-.21c-.62,0-1.24.07-1.87.07C137.87,116.13,138.57,116.1,139.26,116.05Z"/><path class="cls-8" d="M137.48,129.38a2,2,0,0,1-.67-.73c-.81-1.39-.83-3.08-1.15-4.65-.25-1.21-.68-2.38-.84-3.6-.1-.78-.08-1.58-.24-2.36-.05-.23-.19-.59-.28-.93a1.38,1.38,0,0,1,0-.82.45.45,0,0,1,.43-.28c-.27,0-.54,0-.65.28a1.38,1.38,0,0,0,0,.82c.09.34.23.7.28.93.16.78.14,1.58.25,2.36.15,1.22.58,2.39.83,3.6.32,1.57.34,3.27,1.15,4.65a2,2,0,0,0,.67.73,1,1,0,0,0,.57.11A1.1,1.1,0,0,1,137.48,129.38Z"/></g><path class="cls-29" d="M143.88,126.74a7.29,7.29,0,0,0-.55,3.16c.11,4.36-1.63,13.51-1.63,13.51h-1.53s-.22-10.13,0-11-.11-3.92-.43-8.17a21.54,21.54,0,0,1,.77-7.28c.12-.44.21-.68.21-.68s2.5-3.7,3.92-2a4.35,4.35,0,0,1,.56,2.26A34.37,34.37,0,0,1,143.88,126.74Z"/><path class="cls-3" d="M145.2,116.58a4.35,4.35,0,0,0-.56-2.26,1.14,1.14,0,0,0-1.07-.45,1.15,1.15,0,0,1,.74.45,4.35,4.35,0,0,1,.56,2.26,34,34,0,0,1-1.32,10.16,7.46,7.46,0,0,0-.55,3.16c.11,4.36-1.63,13.51-1.63,13.51h.33s1.74-9.15,1.63-13.51a7.29,7.29,0,0,1,.55-3.16A34.37,34.37,0,0,0,145.2,116.58Z"/><path class="cls-9" d="M139.38,143a1.43,1.43,0,0,0-.31.34c-.2.37.08.81.38,1.1s.65.61.65,1a1,1,0,0,1-.54.8c-.15.1-.34.22-.31.4a.38.38,0,0,0,.06.13,1.66,1.66,0,0,0,1.11.67,5,5,0,0,0,1.34,0,.3.3,0,0,0,.18-.06.27.27,0,0,0,.05-.15,1.9,1.9,0,0,1,.11-.68c.14-.29.46-.43.65-.69a1.53,1.53,0,0,0,.13-1.26,5.26,5.26,0,0,0-1.43-2.61C140.6,141.31,139.94,142.48,139.38,143Z"/><path class="cls-18" d="M142.68,88.1a2.81,2.81,0,0,0-.17-3.08,5.31,5.31,0,0,0-2.65-1.84,7.49,7.49,0,0,0-4.34-.29,20.42,20.42,0,0,0-3.23,1.39,14,14,0,0,1-6,1.2c-2.3-.07-4.82-.66-6.75.6-3.53,2.3-2,8.55-5.3,11.11a21.61,21.61,0,0,1-3,1.53,3.17,3.17,0,0,0-1.93,2.59,3,3,0,0,0,.55,1.53,7.07,7.07,0,0,0,5.94,3.19,7.55,7.55,0,0,0,6-3.19,4.74,4.74,0,0,1,1.13-1.34c1-.64,2.28-.19,3.45-.09A5.58,5.58,0,0,0,132,97.1c.22-1.1.18-2.41,1.07-3.09a4.83,4.83,0,0,1,2.61-.53,5.36,5.36,0,0,0,3.85-2.54c.41-.62.46-1.35,1-1.84S142.1,89,142.68,88.1Z"/><g class="cls-7"><path class="cls-8" d="M124.09,85.69a14.3,14.3,0,0,0,2.85-.22q-.39,0-.78,0c-1.8,0-3.74-.42-5.43,0C121.84,85.51,123,85.66,124.09,85.69Z"/><path class="cls-8" d="M120.67,101.72a4.61,4.61,0,0,0-1.13,1.34,7.62,7.62,0,0,1-4.3,3h.39a7.56,7.56,0,0,0,6-3.19,4.74,4.74,0,0,1,1.13-1.34l.09,0A3.06,3.06,0,0,0,120.67,101.72Z"/><path class="cls-8" d="M142.4,85a5.25,5.25,0,0,0-2.65-1.84,7.41,7.41,0,0,0-4.34-.3l-.1,0a8.68,8.68,0,0,1,2.37.48,5.31,5.31,0,0,1,2.65,1.84,2.83,2.83,0,0,1,.17,3.09c-.58.86-1.51.47-2.12,1s-.61,1.22-1,1.83a5.61,5.61,0,0,1-3.18,2.42c.46,0,.95,0,1.4-.1a5.33,5.33,0,0,0,3.85-2.54c.41-.61.46-1.35,1-1.83s1.54-.14,2.12-1A2.81,2.81,0,0,0,142.4,85Z"/><path class="cls-8" d="M133.51,93.69a5.07,5.07,0,0,0-2.61.53c-.88.69-.84,2-1.06,3.09a5.57,5.57,0,0,1-3.78,4.08h.13a5.58,5.58,0,0,0,5.73-4.3c.21-1.1.18-2.41,1.06-3.09a1.75,1.75,0,0,1,.67-.33Z"/></g><path class="cls-29" d="M159.84,84.2s-2.62,5.23-3.49,7.19-8.82,4.9-9.91,5a1.34,1.34,0,0,0-.78.38,4.21,4.21,0,0,0-1,1.48,33.34,33.34,0,0,1-.11,7.84l0,.28c-.47,4.66.52,5.77.52,5.77s-10.56,4-10.24-1.2a23.14,23.14,0,0,0,0-3.86,15.69,15.69,0,0,0-.63-3c-.25-.91-.56-1.9-.88-3.24a13.35,13.35,0,0,0-.61-2,.14.14,0,0,0,0-.06c-.54-1.35-1.09-1.79-1.4-1.93a5.79,5.79,0,0,1-.84-.47,46,46,0,0,1-5.09-4.28c-2.61-2.61-5.23-8.82-5.23-8.82a10.19,10.19,0,0,1,1-6.54c1.75-2.94,1,5.77,1,5.77A43.55,43.55,0,0,1,126,88.72a3.28,3.28,0,0,0,1.52,1.8,18.66,18.66,0,0,1,2.41,1.5,13.38,13.38,0,0,0,1.63,1.06,13.77,13.77,0,0,0,3.89,1.59,3.66,3.66,0,0,0,.57,0,.62.62,0,0,0,.48-.22,2.85,2.85,0,0,0,.25-1.89,8.85,8.85,0,0,0-.18-1s3.54-2.24,3.43.49a3,3,0,0,0,.08.89,1.56,1.56,0,0,0,1.06,1.16,2.6,2.6,0,0,0,1.3,0,1.28,1.28,0,0,0,.39-.13,26.15,26.15,0,0,1,4.58-1.31c1-.11,5.88-2.5,5.88-2.5l5.34-7.41s-.11-4.36,2.07-6.1S159.84,84.2,159.84,84.2Z"/><g class="cls-7"><path class="cls-8" d="M144.55,105.73a23,23,0,0,0-.12,2.63q0-.85.12-2l0-.28a42.74,42.74,0,0,0,.28-5,43.31,43.31,0,0,1-.28,4.4C144.58,105.54,144.56,105.63,144.55,105.73Z"/><path class="cls-8" d="M136.69,91.49l-.11.07a8.42,8.42,0,0,1,.21,1.41A6.7,6.7,0,0,0,136.69,91.49Z"/><path class="cls-8" d="M122.14,81.92c0-.76.13-2.13.11-3.34,0,1.62-.16,3.28-.16,3.28Z"/><path class="cls-8" d="M134.84,110.82a.62.62,0,0,1,0,.13c-.32,5.23,10.24,1.2,10.24,1.2a1.93,1.93,0,0,1-.27-.56C143.21,112.16,135.21,114.79,134.84,110.82Z"/><path class="cls-8" d="M159.84,83.55s-2.62,5.23-3.49,7.19-8.82,4.9-9.91,5a1.39,1.39,0,0,0-.78.37,4.31,4.31,0,0,0-1,1.48s0,.18.06.52a4,4,0,0,1,.91-1.34,1.34,1.34,0,0,1,.78-.38c1.09-.11,9-3.05,9.91-5s3.49-7.19,3.49-7.19,1.84-5.59,1.63-7.26A41,41,0,0,1,159.84,83.55Z"/><path class="cls-8" d="M134.82,106.44a15.79,15.79,0,0,0-.63-3c-.25-.9-.56-1.89-.88-3.24a14.12,14.12,0,0,0-.61-2,.17.17,0,0,0,0-.05c-.54-1.35-1.09-1.79-1.4-1.93a5.79,5.79,0,0,1-.84-.47,46,46,0,0,1-5.09-4.28c-2.61-2.62-5.23-8.83-5.23-8.83A10.45,10.45,0,0,1,120,81a11.26,11.26,0,0,0,.16,2.25s2.62,6.21,5.23,8.82a46,46,0,0,0,5.09,4.28,4.7,4.7,0,0,0,.85.47c.31.14.85.58,1.4,1.93a.14.14,0,0,0,0,.06,13.32,13.32,0,0,1,.6,2c.32,1.34.63,2.33.89,3.24a16.46,16.46,0,0,1,.62,3,13.78,13.78,0,0,1,.08,1.51A17.33,17.33,0,0,0,134.82,106.44Z"/></g><path class="cls-5" d="M145.61,101.71a6.32,6.32,0,0,0-.44.86A5.27,5.27,0,0,0,145,104a12.36,12.36,0,0,1-.31,2,2.47,2.47,0,0,1-.11.36,1,1,0,0,1-.13.22.86.86,0,0,1-.2.18,1.9,1.9,0,0,1-.37.2,8.63,8.63,0,0,1-4.83,1.09,7.14,7.14,0,0,1-2-.67,2.5,2.5,0,0,0-1.9-.4h0a1.18,1.18,0,0,1-.3.1h-.07c-.2,0-.2-.73-.25-.93-.18-.78-.2-1.42-.31-2.1a7,7,0,0,0-.26-1.1,13,13,0,0,1-.57-4.11c0-.07-.49,0-.65,0s-.07,0-.06,0l0,0a.54.54,0,0,1,.2-.1l.13,0a4.49,4.49,0,0,0,1.92-.74,2.59,2.59,0,0,0,.63-2,10.67,10.67,0,0,1-.1-1.25,3.66,3.66,0,0,0,.57,0,.56.56,0,0,0,.48-.22,8.73,8.73,0,0,1,.47,1.09,7.81,7.81,0,0,0,.6,1.35,2.28,2.28,0,0,0,2,1,1.89,1.89,0,0,0,1.69-1.47,17.91,17.91,0,0,0-.16-2.4,2.6,2.6,0,0,0,1.3,0,.69.69,0,0,1,0,.13c.25.85.57,1.81,1.4,2.11.53.19,1.16,0,1.65.33l.11.07a1.14,1.14,0,0,1,.28.3,2.3,2.3,0,0,1,.35,1.1A6.06,6.06,0,0,1,145.61,101.71Z"/><path class="cls-3" d="M140.09,92.94a3.7,3.7,0,0,1-3.33-.33,8.85,8.85,0,0,0-.18-1s3.54-2.24,3.43.49A3,3,0,0,0,140.09,92.94Z"/><circle class="cls-29" cx="138.75" cy="89.27" r="3.7"/><path class="cls-18" d="M135.57,89.88c-.11-.68-.28-1.53.29-1.92a1.16,1.16,0,0,1,.68-.18c1.17,0,2.3.81,3.45.57a1.95,1.95,0,0,0,.77-3.47,3.85,3.85,0,0,0-1.59-.57,9.52,9.52,0,0,0-4.43-.22,3.32,3.32,0,0,0-2.64,3.16,4.52,4.52,0,0,0,.79,2c.29.46,1.41,2.61,2,2.64C135.61,91.9,135.64,90.33,135.57,89.88Z"/><path class="cls-5" d="M144.75,110.29s-7.52,1.86-10,0c0,0-1.09,4.25-.77,6.43,0,0,5.34.33,5.89.65,0,0,.1-.87.65-.43,0,0,1.85-2.18,5.23-.22C145.73,116.72,146.38,111.6,144.75,110.29Z"/><path class="cls-3" d="M140.76,84.88a1.58,1.58,0,0,0-.24-.15,2,2,0,0,1-.18,2.74,2,2,0,0,1-.89.45c-1.16.23-2.28-.59-3.46-.57a1.2,1.2,0,0,0-.67.17c-.57.39-.41,1.25-.3,1.93.08.44,0,2-.72,2h0c.21.26.4.43.56.44.76,0,.79-1.53.72-2-.11-.68-.28-1.53.29-1.92a1.16,1.16,0,0,1,.68-.18c1.17,0,2.3.81,3.45.57a1.95,1.95,0,0,0,.77-3.47Z"/><path class="cls-30" d="M43.53,138c.52-.65,1.2.65,1.88.17H41.63C42.4,138.55,43,137.26,43.53,138Z"/><path class="cls-31" d="M38.6,137.34a6.34,6.34,0,0,0-3,.78h6.07A6.3,6.3,0,0,0,38.6,137.34Z"/><path class="cls-32" d="M21.84,84s-6.39-2-5.41,1.29S22.8,87,22.8,87Z"/><path class="cls-12" d="M46.29,71.74s-3.28-4.48-6.46.17-6.16,8.48-6.16,8.48L25.75,83l-4.59.4,1.27,4.08,13.33-1.93S50.6,76.71,46.29,71.74Z"/><path class="cls-32" d="M31.66,96.54s-5,3.49-4.64,6.64S29.5,115,29.5,115L34,114.3s.49-6.64-1.17-9.13l8-4.48Z"/><path class="cls-32" d="M42.7,104.76s-.33,6.14.5,8.63,1.66,11.78,1.66,11.78H49.5S51.66,117,49,113.39c0,0-.83-4.81,1.49-7.14Z"/><path class="cls-17" d="M41.62,87.75s-10.79,6.8-10.79,9l8.63,7.14,3-3.32-.33,5,9.29,1.82s3.32-12.61,3.16-13.11-.67-7.8-.67-7.8Z"/><path class="cls-5" d="M34,113.47l-4.82,1L30,118a12.54,12.54,0,0,1,.14,5.28h0s5,1.32,5,.66-1.16-3.32-.83-5.15A20.06,20.06,0,0,0,34,113.47Z"/><path class="cls-9" d="M36.48,125.92c-.17-.66-1.55-3.67-1.61-3.16s-2.71,1.34-3.71.34c0,0-1.32-1.16-1.82,0s-1.49,3.15-1.49,3.15-4.49,2.16-3.82,3.32c.13.24.5.34,1,.35a.29.29,0,0,0,0,.09v.12a.28.28,0,0,0,.28.27h.11a.27.27,0,0,0,.28-.27V130a.27.27,0,0,0,0-.12l.42,0A.27.27,0,0,0,26,130v.12a.27.27,0,0,0,.27.27h.12a.27.27,0,0,0,.27-.27V130a.27.27,0,0,0-.14-.24c.38-.06.78-.14,1.18-.23a.23.23,0,0,0,0,.14v.12a.27.27,0,0,0,.27.27h.12a.27.27,0,0,0,.27-.27v-.12a.26.26,0,0,0-.16-.25l.87-.22a.23.23,0,0,0,0,.14v.12a.27.27,0,0,0,.27.27h.12a.27.27,0,0,0,.27-.27v-.12a.27.27,0,0,0-.19-.26c1-.28,1.68-.51,1.68-.51s.83-.3,1.83-.71v.1a.28.28,0,0,0,.27.28h.12a.28.28,0,0,0,.27-.28v-.12a.25.25,0,0,0-.1-.21l.6-.26v.09a.27.27,0,0,0,.28.28h.11a.28.28,0,0,0,.28-.28v-.11a.29.29,0,0,0-.12-.23l.62-.3s0,0,0,0V127a.28.28,0,0,0,.28.27h.11A.27.27,0,0,0,36,127v-.12a.28.28,0,0,0-.22-.27C36.22,126.32,36.52,126.08,36.48,125.92Z"/><path class="cls-5" d="M49.84,124.43l-5.26-.33s.32,5.47-.32,7.3-.32,2.49-.32,2.49l4.62.33Z"/><path class="cls-9" d="M49.9,136.53c0-.68-.74-3.91-.91-3.43s-2.93.75-3.69-.43c0,0-1.06-1.42-1.79-.38s-2.12,2.77-2.12,2.77-4.83,1.17-4.42,2.45c.08.26.42.43.92.55a.19.19,0,0,0,0,.09l0,.11a.29.29,0,0,0,.21.33l.12,0a.27.27,0,0,0,.32-.21l0-.12a.25.25,0,0,0,0-.12l.43,0a.31.31,0,0,0-.1.15l0,.12a.27.27,0,0,0,.21.32l.11,0a.28.28,0,0,0,.33-.21l0-.12a.26.26,0,0,0-.09-.26c.39,0,.8,0,1.2,0a.4.4,0,0,0-.07.13l0,.11a.27.27,0,0,0,.21.32l.12,0a.27.27,0,0,0,.32-.21l0-.12a.26.26,0,0,0-.1-.27l.89,0a.27.27,0,0,0-.07.13l0,.11a.28.28,0,0,0,.21.33l.11,0a.28.28,0,0,0,.33-.21l0-.11a.28.28,0,0,0-.13-.3c1-.06,1.75-.15,1.75-.15s.87-.12,1.94-.31l0,.1a.27.27,0,0,0,.21.33l.11,0a.27.27,0,0,0,.32-.21l0-.11a.29.29,0,0,0-.06-.24l.64-.12v.09a.26.26,0,0,0,.21.32l.11,0a.27.27,0,0,0,.32-.21l0-.12a.26.26,0,0,0-.07-.24l.67-.17s0,0,0,0l0,.11a.27.27,0,0,0,.21.33l.11,0a.27.27,0,0,0,.32-.21l0-.11a.27.27,0,0,0-.16-.31C49.57,136.87,49.91,136.7,49.9,136.53Z"/><circle class="cls-32" cx="41.62" cy="61.36" r="4.81"/><path class="cls-32" d="M45.94,60.86s2.65,3.32,4,3.15l-5.81,4.48s-.66-2.82-1.49-3.15S45.94,60.86,45.94,60.86Z"/><path class="cls-12" d="M56.31,85.51s0-18.32-3.07-19.9-5.1-2.47-5.1-2.47h0a4.37,4.37,0,0,1-1.66,3.08,6.2,6.2,0,0,1-2.6,1.44l0-.08-.07-.2L42.12,70a3.25,3.25,0,0,0-2,1.33c-.27.53,1,6,.25,10.87-.64,4.16-3.33,7.92-3.41,8.38-.13.77,3.14-1.25,4.61-2.2a.12.12,0,0,1,0,0s-.83.33.83-.16A10.56,10.56,0,0,1,45.67,88a6.15,6.15,0,0,0,0,.67c.16,1.66,8.46,4,9.62,3.49S56.31,85.51,56.31,85.51Z"/><path class="cls-32" d="M50.5,91.81s-5,4.48-1.66,5.31,4.65-4.64,4.65-4.64Z"/><path class="cls-5" d="M44.69,103.43s2.33-2.16,3.65-1,2.16,2,2.16,2S46.68,102.1,44.69,103.43Z"/><path class="cls-9" d="M45.3,129.25s1.3-1.22,2.05-.56,1.22,1.12,1.22,1.12S46.42,128.5,45.3,129.25Z"/><path class="cls-9" d="M30.62,117.94s.9-1.55,1.81-1.14,1.49.72,1.49.72S31.48,116.89,30.62,117.94Z"/><path class="cls-12" d="M55.06,67.89A3.13,3.13,0,0,0,49.22,70a.94.94,0,0,0,0,.16,32.41,32.41,0,0,0,4.15,9.63l-1.83,8.13-2,4.15,4.15,1,5.14-12.45S57.46,72.73,55.06,67.89Z"/><polygon class="cls-33" points="52.66 80.03 49.51 91.98 52.16 86.34 52.66 80.03"/><path class="cls-17" d="M44.64,55.75s-2.66-2.8-5.33-1-4,3.48-3.69,4.67a17.11,17.11,0,0,0,1,2.85s-.48-2.47,1.73-2.65a19.48,19.48,0,0,0,5.28-1.65l2.08,4.42s.29-1,1.1-.73S47,56.07,44.64,55.75Z"/><path class="cls-5" d="M27.6,119a7.66,7.66,0,0,1-.11,1.26h0a7.47,7.47,0,0,1-8.62,6.11,7.32,7.32,0,0,1-1.71-.51h0a6.79,6.79,0,0,1-.89-.46,7.48,7.48,0,0,1-3.47-4.92,8.15,8.15,0,0,1-.14-1.48c0-.22,0-.45,0-.67h0a7.47,7.47,0,0,1,14.9.57h0A.38.38,0,0,1,27.6,119Z"/><path class="cls-34" d="M22,116.54H18.62L17,113.64l1.13-2,.07,0a7.62,7.62,0,0,1,4.36.12l.06,0,1.07,1.84Zm-3.16-.33h3l1.49-2.57-.91-1.56A7.34,7.34,0,0,0,18.3,112l-1,1.68Z"/><path class="cls-34" d="M21.8,122.51H18.45l-1.67-2.89,1.67-2.9H21.8l1.67,2.9Zm-3.15-.33h3l1.48-2.56-1.48-2.57h-3l-1.48,2.57Z"/><path class="cls-34" d="M20.13,126.67a7.48,7.48,0,0,1-3-.63l-.18-.07,1.7-2.94H22l1.62,2.81-.16.08A7.7,7.7,0,0,1,20.13,126.67Zm-2.73-.86a7.33,7.33,0,0,0,5.72-.11l-1.35-2.34h-3Z"/><path class="cls-34" d="M27.44,119.53H24.1l-1.67-2.9,1.67-2.9h1.52l.05,0a7.6,7.6,0,0,1,2.09,5.15v0Zm-3.15-.34h3l.18-.3a7.31,7.31,0,0,0-1.95-4.83H24.29l-1.48,2.57Z"/><path class="cls-34" d="M24.05,125.59l-1.62-2.82,1.67-2.9h3.34l.22.37v.08a7.64,7.64,0,0,1-3.46,5.17Zm-1.24-2.82,1.36,2.35a7.34,7.34,0,0,0,3.15-4.8l-.07-.11h-3Z"/><path class="cls-34" d="M16.33,125.66l-.15-.09a7.68,7.68,0,0,1-3.54-5v-.06l.35-.61h3.34l1.68,2.9ZM13,120.54a7.35,7.35,0,0,0,3.23,4.66l1.4-2.43-1.48-2.56h-3Z"/><path class="cls-34" d="M16.32,119.19H13l-.46-.78v0a7.64,7.64,0,0,1,2.41-4.92l0,0h1.35L18,116.3Zm-3.15-.33h3l1.48-2.56-1.48-2.57h-1a7.29,7.29,0,0,0-2.25,4.6Z"/></svg>