<svg xmlns="http://www.w3.org/2000/svg" xmlns:xlink="http://www.w3.org/1999/xlink" width="490" height="415" viewBox="0 0 490 415">
  <defs>
    <clipPath id="clip-path">
      <path id="Exclusion_1" data-name="Exclusion 1" d="M160,320a161.188,161.188,0,0,1-32.246-3.251,159.126,159.126,0,0,1-57.212-24.075,160.467,160.467,0,0,1-57.969-70.4,159.2,159.2,0,0,1-9.323-30.034,161.561,161.561,0,0,1,0-64.491A159.125,159.125,0,0,1,27.326,70.542a160.467,160.467,0,0,1,70.4-57.969,159.2,159.2,0,0,1,30.034-9.323,161.561,161.561,0,0,1,64.491,0,159.124,159.124,0,0,1,57.212,24.075,160.466,160.466,0,0,1,57.969,70.4,159.194,159.194,0,0,1,9.323,30.034,161.563,161.563,0,0,1,0,64.491,159.128,159.128,0,0,1-24.075,57.212,160.467,160.467,0,0,1-70.4,57.969,159.2,159.2,0,0,1-30.034,9.323A161.185,161.185,0,0,1,160,320Zm0-287.513A127.513,127.513,0,1,0,287.513,160,127.658,127.658,0,0,0,160,32.487Z" transform="translate(-2361.807 3114.193)" fill="rgba(58,170,53,0.55)"/>
    </clipPath>
  </defs>
  <g id="Group_19" data-name="Group 19" transform="translate(2335 -2584)">
    <rect id="Rectangle_23" data-name="Rectangle 23" width="490" height="415" transform="translate(-2335 2584)" fill="rgba(255,255,255,0.55)"/>
    <g id="Mask_Group_8" data-name="Mask Group 8" transform="translate(111.807 -482.193)" clip-path="url(#clip-path)">
      <rect id="Rectangle_31" data-name="Rectangle 31" width="199" height="169" transform="translate(-2400.807 3105.193)" fill="rgba(42,50,125,0.55)"/>
      <rect id="Rectangle_32" data-name="Rectangle 32" width="199" height="169" transform="translate(-2400.807 3273.193)" fill="rgba(29,113,184,0.55)"/>
      <rect id="Rectangle_33" data-name="Rectangle 33" width="199" height="338" transform="translate(-2201.807 3105.193)" fill="rgba(58,170,53,0.55)"/>
    </g>
  </g>
</svg>
