<?xml version="1.0" encoding="utf-8"?>
<!-- Generator: Adobe Illustrator 25.2.0, SVG Export Plug-In . SVG Version: 6.00 Build 0)  -->
<svg version="1.1" id="bf4a54d9-4411-43b3-8949-563af8245ce3"
	 xmlns="http://www.w3.org/2000/svg" xmlns:xlink="http://www.w3.org/1999/xlink" x="0px" y="0px" viewBox="0 0 800 800"
	 style="enable-background:new 0 0 800 800;" xml:space="preserve">
<style type="text/css">
	.st0{opacity:0.5;fill:#2A327D;enable-background:new    ;}
	.st1{fill:#FFFFFF;}
	.st2{opacity:0.1;fill:#2A327D;enable-background:new    ;}
	.st3{fill:#2A327D;}
	.st4{fill:#9F616A;}
	.st5{fill:#6C63FF;}
	.st6{fill:#2F2E41;}
	.st7{fill:#CCCCCC;}
	.st8{fill:none;stroke:#FFFFFF;stroke-linecap:round;stroke-linejoin:round;stroke-miterlimit:10;}
</style>
<rect x="18.6" y="4.7" class="st0" width="381.8" height="516.5"/>
<rect x="32.1" y="22.9" class="st1" width="354.9" height="480.1"/>
<path class="st2" d="M340.3,107.1H79.9c-4.4,0-8-3.6-8-8c0-4.4,3.6-8,8-8h260.6c4.4,0,8,3.6,8,8
	C348.4,103.6,344.8,107.1,340.3,107.1C340.4,107.1,340.4,107.1,340.3,107.1z"/>
<path class="st2" d="M340.3,189H79.9c-4.4,0-8-3.6-8-8c0-4.4,3.6-8,8-8h260.6c4.4,0,8,3.6,8,8S344.8,189,340.3,189
	C340.4,189,340.4,189,340.3,189z"/>
<path class="st2" d="M340.3,270.9H79.9c-4.4,0-8-3.6-8-8c0-4.4,3.6-8,8-8h260.6c4.4,0,8,3.6,8,8
	C348.4,267.3,344.8,270.9,340.3,270.9C340.4,270.9,340.4,270.9,340.3,270.9z"/>
<path class="st2" d="M340.3,352.7H79.9c-4.4,0-8-3.6-8-8c0-4.4,3.6-8,8-8h260.6c4.4,0,8,3.6,8,8
	C348.4,349.1,344.8,352.7,340.3,352.7C340.4,352.7,340.4,352.7,340.3,352.7z"/>
<path class="st2" d="M340.3,434.7H79.9c-4.4,0-8-3.6-8-8c0-4.4,3.6-8,8-8h260.6c4.4,0,8,3.6,8,8
	C348.4,431.1,344.8,434.7,340.3,434.7C340.4,434.7,340.4,434.7,340.3,434.7z"/>
<path class="st3" d="M294.8,107.1H78.8c-4.4,0-8-3.6-8-8c0-4.4,3.6-8,8-8l0,0H295c4.4,0,8,3.6,8,8
	C302.8,103.6,299.2,107.1,294.8,107.1z"/>
<path class="st3" d="M227.8,189h-149c-4.4,0-8-3.6-8-8c0-4.4,3.6-8,8-8h149c4.4,0,8,3.6,8,8S232.2,189,227.8,189L227.8,189z"/>
<path class="st3" d="M145.8,270.9H78.6c-4.4,0-8-3.6-8-8c0-4.4,3.6-8,8-8l0,0h67.2c4.4,0,8,3.6,8,8
	C153.8,267.3,150.2,270.9,145.8,270.9z"/>
<path class="st3" d="M315.3,352.7H78.8c-4.4,0-8-3.6-8-8c0-4.4,3.6-8,8-8h236.5c4.4,0,8,3.6,8,8
	C323.3,349.1,319.7,352.7,315.3,352.7L315.3,352.7z"/>
<path class="st3" d="M263,434.7H78.8c-4.4,0-8-3.6-8-8c0-4.4,3.6-8,8-8l0,0h184.3c4.4,0,8,3.6,8,8
	C270.9,431.1,267.4,434.7,263,434.7L263,434.7z"/>
<rect y="796.2" class="st3" width="800" height="2"/>
<path class="st4" d="M496.6,451c0,0-7.1-51.9-18.9-37.7c-11.8,14.2,0,35.4,0,35.4l9.5,11.8l9.5-7.1V451z"/>
<path class="st5" d="M524.9,467.5c0,0-23.6-25.9-28.3-21.3c-4.6,4.6-18.9,7.1-16.5,16.5c2.4,9.5,51.9,40.1,51.9,40.1L524.9,467.5z"
	/>
<path class="st3" d="M524.9,467.5c0,0-23.6-25.9-28.3-21.3c-4.6,4.6-18.9,7.1-16.5,16.5c2.4,9.5,51.9,40.1,51.9,40.1L524.9,467.5z"
	/>
<path class="st4" d="M659.4,465.2v18.9c0,0,2.4,42.4-11.8,40.1c-14.2-2.4-7.1-37.7-7.1-37.7l2.4-21.3H659.4z"/>
<path class="st4" d="M652.3,601.9c0,0,21.3,33,28.3,35.4c7,2.4,44.8,23.6,49.5,44.8l33,42.4l-16.5,21.3c0,0-75.4-80.2-96.7-87.3
	c-21.3-7.1-42.4-42.4-42.4-42.4L652.3,601.9z"/>
<path class="st4" d="M484.8,547.7c0,0-44.8,7.1-37.7,35.4c7.1,28.3,75.4,87.3,75.4,87.3l2.4,14.2l25.9,4.7l11.8-11.8l-2.4-7.1
	c0,0-28.3-25.9-30.6-35.4s-28.3-47.2-40.1-49.5l16.5-9.5L484.8,547.7z"/>
<path class="st6" d="M756.1,724.5c0,0-9.5-14.2,4.7-11.8c14.2,2.4,23.6,4.7,23.6,14.2s-11.8,75.4-25.9,70.8
	c-14.1-4.6-2.4-25.9-2.4-25.9s-7.1-18.9-11.8-21.3s-4.7-14.2,0-14.2S758.5,729.3,756.1,724.5z"/>
<path class="st6" d="M555.6,672.8c0,0,0-11.8,9.5,0s14.2,21.3,4.7,28.3c-9.5,7-42.4,23.6-42.4,23.6s-35.4,7.1-30.6-9.5
	c0,0,23.6-11.8,23.6-21.3s0-25.9,7.1-21.3S555.6,679.7,555.6,672.8z"/>
<path class="st6" d="M600.4,495.8c0,0,33,4.7,30.6,51.9c0,0,42.4,42.4,30.6,56.6c-11.8,14.2-37.7,40.1-47.2,33
	c-9.5-7.1-37.7-61.2-37.7-61.2s-66.1,23.6-77.8,11.8s-23.6-40.1-23.6-40.1l59-30.6L600.4,495.8z"/>
<ellipse transform="matrix(0.1602 -0.9871 0.9871 0.1602 98.2925 781.4972)" class="st4" cx="508.4" cy="333" rx="28.3" ry="28.3"/>
<path class="st4" d="M529.6,335.3c0,0,16.5,25.9,21.3,28.3s-33,25.9-33,25.9s0-30.6-11.8-37.7L529.6,335.3z"/>
<path class="st3" d="M531.9,361.4c0,0,37.7-11.8,44.8,7.1c7.1,18.9,23.6,54.3,21.3,77.8c-2.4,23.5-7.1,18.9,0,25.9
	c7.1,7.1,11.8,2.4,9.5,11.8c-2.4,9.5-4.7,9.5-2.4,14.2c2.4,4.7-28.3,21.3-54.3,23.6l-25.9,2.4c0,0,0-42.4-4.7-51.9
	c-4.7-9.5-14.2-28.3-14.2-35.4v-18.7c0-12.5,3.3-24.7,9.5-35.6l0,0C515.4,382.5,529.6,361.4,531.9,361.4z"/>
<path class="st3" d="M560.3,370.8c0,0,87.3,7.1,96.7,30.6c9.5,23.5,14.2,70.8,4.7,70.8c-9.5,0-21.3,4.7-23.6,0s-11.8-51.9-14.2-51.9
	s-73.1-7.1-73.1-7.1S520.1,375.5,560.3,370.8z"/>
<path class="st6" d="M507.3,326c0,0-7.5-13.1-16.9-1.7c-9.3,11.4-24.7-9.5-22.3-14c2.4-4.5,10.6,0.2,24.8-4.4
	c14.2-4.6,41.5-14.1,46.2,16.8c4.6,30.8-6.3,27.6-6.3,27.6s-5-27.4-9.6-19.5l-4.5,7.9l-4.1,0.9L507.3,326z"/>
<g>
	<path class="st2" d="M183.5,746.4h58.4l29.1-50.5l-29.1-50.5h-58.4l-29.1,50.5L183.5,746.4z"/>
	<path class="st7" d="M249.2,763.4H176c-1.5,0-2.9-0.8-3.7-2.1L135.8,698c-0.8-1.4-0.8-2.9,0-4.3l36.5-63.3c0.8-1.4,2.2-2.1,3.7-2.1
		h73.2c1.5,0,2.9,0.8,3.7,2.1l36.5,63.3c0.7,1.4,0.7,2.9,0,4.3L253,761.3C252.1,762.7,250.8,763.4,249.2,763.4z M176,630
		c-1,0-1.8,0.5-2.2,1.2l-36.5,63.3c-0.4,0.8-0.4,1.8,0,2.5l36.5,63.3c0.4,0.8,1.2,1.2,2.2,1.2h73.2c1,0,1.8-0.5,2.2-1.2l36.5-63.3
		c0.4-0.8,0.4-1.8,0-2.5l-36.5-63.3c-0.4-0.8-1.2-1.2-2.2-1.2H176L176,630z"/>
	<path class="st3" d="M230.6,678.9c0,9.9-18,31.7-18,31.7s-18-21.8-18-31.7c0-9.9,8-18,18-18S230.6,668.9,230.6,678.9L230.6,678.9
		L230.6,678.9z"/>
	<circle class="st1" cx="212.6" cy="678.9" r="7"/>
	<circle class="st3" cx="212" cy="723.6" r="7"/>
</g>
<g>
	<path class="st2" d="M315.4,664.9h57.7l28.8-50l-28.8-50h-57.7l-28.8,50L315.4,664.9z"/>
	<path class="st7" d="M380.6,682.6h-72.2c-1.5,0-2.9-0.8-3.6-2.1l-36.1-62.6c-0.7-1.2-0.7-2.9,0-4.1l36.1-62.6
		c0.7-1.2,2.1-2.1,3.6-2.1h72.2c1.5,0,2.9,0.8,3.6,2.1l36.1,62.6c0.7,1.2,0.7,2.9,0,4.1l-36.1,62.5
		C383.3,681.8,381.9,682.6,380.6,682.6z M308.2,550.6c-1,0-1.8,0.4-2.2,1.2l-36.1,62.6c-0.4,0.8-0.4,1.8,0,2.5l36.1,62.6
		c0.4,0.8,1.2,1.2,2.2,1.2h72.2c1,0,1.8-0.4,2.2-1.2l36.1-62.6c0.4-0.8,0.4-1.8,0-2.5l-36.1-62.6c-0.4-0.8-1.2-1.2-2.2-1.2H308.2z"
		/>
	<path class="st3" d="M344.3,587.3c-15.2,0-27.6,12.4-27.6,27.6s12.4,27.6,27.6,27.6c15.2,0,27.6-12.4,27.6-27.6
		S359.5,587.3,344.3,587.3L344.3,587.3z M344.3,595.6c4.5,0,8.2,3.7,8.2,8.2s-3.7,8.2-8.2,8.2s-8.2-3.7-8.2-8.2
		C336.1,599.3,339.8,595.6,344.3,595.6L344.3,595.6z M344.3,635.4c-6.6,0-12.8-3.3-16.5-8.8c0.1-5.5,11-8.5,16.5-8.5
		c5.5,0,16.3,3,16.5,8.5C357.2,632.1,351,635.4,344.3,635.4L344.3,635.4z"/>
</g>
<g>
	<path class="st2" d="M51.2,666.3h58.4l29.1-50.5l-29.1-50.5H51.2l-29.1,50.5L51.2,666.3z"/>
	<path class="st7" d="M116.8,683.3H43.6c-1.5,0-2.9-0.8-3.7-2.1L3.5,617.9c-0.7-1.4-0.7-2.9,0-4.3l36.5-63.3
		c0.8-1.4,2.2-2.1,3.7-2.1H117c1.5,0,2.9,0.8,3.7,2.1l36.5,63.3c0.7,1.4,0.7,2.9,0,4.3l-36.5,63.3
		C119.9,682.6,118.3,683.3,116.8,683.3z M43.8,549.8c-1,0-1.8,0.5-2.2,1.2L4.9,614.5c-0.4,0.8-0.4,1.8,0,2.5l36.5,63.3
		c0.4,0.8,1.2,1.2,2.2,1.2h73.2c1,0,1.8-0.5,2.2-1.2l36.5-63.3c0.4-0.8,0.4-1.8,0-2.5L119,551.2c-0.4-0.8-1.2-1.2-2.2-1.2
		L43.8,549.8z"/>
	<path class="st3" d="M80.3,596.4c-5.8-6-15.4-6.3-21.6-0.5c-6,5.8-6.3,15.4-0.5,21.6l0,0c0.1,0.1,0.3,0.4,0.5,0.5l22.1,22.1
		l21.6-21.6c5.9-6.2,5.8-16.1-0.5-22.1C95.8,590.6,86.3,590.6,80.3,596.4L80.3,596.4z"/>
</g>
<polyline class="st8" points="65.3,622.2 74.3,605.6 82.6,622.2 89.9,612.2 97.1,622.2 "/>
</svg>
