<svg xmlns="http://www.w3.org/2000/svg" viewBox="0 0 329.75 69.16"><defs><style>.cls-1{fill:#fff;}.cls-2{fill:#034ea2;}.cls-3{fill:#fff200;}.cls-4{font-size:24px;font-family:Arial-BoldMT, Arial;font-weight:700;}.cls-4,.cls-5{fill:#231f20;}.cls-5{font-size:17.76px;font-family:ArialMT, Arial;}</style></defs><g id="Layer_2" data-name="Layer 2"><g id="Layer_1-2" data-name="Layer 1"><rect class="cls-1" width="100.99" height="68.6"/><rect class="cls-2" x="1.94" y="1.88" width="97.11" height="64.74"/><polygon class="cls-3" points="48.42 15.98 50.47 14.49 52.52 15.98 51.74 13.57 53.83 12.07 51.26 12.07 50.47 9.62 49.69 12.07 47.13 12.07 49.2 13.57 48.42 15.98"/><polygon class="cls-3" points="37.82 18.83 39.87 17.34 41.92 18.83 41.14 16.42 43.22 14.92 40.66 14.92 39.87 12.47 39.08 14.92 36.52 14.92 38.6 16.42 37.82 18.83"/><polygon class="cls-3" points="32.11 20.25 31.33 22.7 28.76 22.7 30.84 24.19 30.06 26.61 32.11 25.11 34.16 26.61 33.38 24.19 35.46 22.7 32.9 22.7 32.11 20.25"/><polygon class="cls-3" points="29.27 35.71 31.31 37.2 30.54 34.78 32.62 33.29 30.05 33.29 29.27 30.84 28.48 33.29 25.92 33.29 28 34.78 27.22 37.2 29.27 35.71"/><polygon class="cls-3" points="32.9 43.91 32.11 41.46 31.33 43.91 28.76 43.91 30.84 45.41 30.06 47.82 32.11 46.32 34.16 47.82 33.38 45.41 35.46 43.91 32.9 43.91"/><polygon class="cls-3" points="40.67 51.68 39.88 49.23 39.1 51.69 36.54 51.68 38.62 53.18 37.84 55.6 39.89 54.1 41.93 55.6 41.16 53.18 43.24 51.68 40.67 51.68"/><polygon class="cls-3" points="51.26 54.5 50.48 52.05 49.69 54.5 47.13 54.5 49.21 55.99 48.43 58.41 50.48 56.92 52.52 58.41 51.74 55.99 53.83 54.5 51.26 54.5"/><polygon class="cls-3" points="61.85 51.68 61.07 49.23 60.28 51.69 57.72 51.68 59.8 53.18 59.02 55.6 61.07 54.1 63.12 55.6 62.34 53.18 64.42 51.68 61.85 51.68"/><polygon class="cls-3" points="69.63 43.91 68.84 41.46 68.06 43.91 65.49 43.91 67.57 45.41 66.79 47.82 68.84 46.32 70.89 47.82 70.11 45.41 72.19 43.91 69.63 43.91"/><polygon class="cls-3" points="75.01 33.26 72.44 33.26 71.66 30.81 70.87 33.26 68.31 33.26 70.39 34.75 69.61 37.17 71.66 35.67 73.7 37.17 72.93 34.75 75.01 33.26"/><polygon class="cls-3" points="66.79 26.58 68.84 25.08 70.89 26.58 70.11 24.16 72.19 22.67 69.63 22.67 68.84 20.22 68.05 22.67 65.49 22.67 67.57 24.16 66.79 26.58"/><polygon class="cls-3" points="61.1 12.47 60.31 14.93 57.75 14.92 59.83 16.42 59.05 18.84 61.1 17.34 63.15 18.84 62.37 16.42 64.45 14.92 61.88 14.92 61.1 12.47"/><text class="cls-4" transform="translate(110.07 22.48)">E</text><text class="cls-4" transform="translate(125.84 22.48)">U</text><text class="cls-4" transform="translate(143.17 22.48)">R</text><text class="cls-4" transform="translate(160.33 22.48)">O</text><text class="cls-4" transform="translate(179 22.48)">P</text><text class="cls-4" transform="translate(195.08 22.48)">EAN UNION</text><text class="cls-5" transform="translate(110.07 42.07)">European Regional <tspan x="0" y="21.32">Development Fund</tspan></text></g></g></svg>