<svg id="Layer_1" data-name="Layer 1" xmlns="http://www.w3.org/2000/svg" viewBox="0 0 180 180"><defs><style>.cls-1{fill:#302f42;}.cls-2,.cls-4,.cls-5{fill:#3eab37;}.cls-2,.cls-7{opacity:0.5;}.cls-3{fill:#e7e6e6;}.cls-4{opacity:0.1;}.cls-6{fill:#f6b6b9;}.cls-7{fill:#3caa36;}.cls-8{fill:#a1626a;}.cls-9{fill:#cdcccc;}.cls-10{font-size:11.77px;fill:#fff;font-family:Poppins-Regular, Poppins;}</style></defs><circle class="cls-1" cx="150.77" cy="119.85" r="7.3"/><path class="cls-2" d="M161.09,0H18.23a2.05,2.05,0,0,0-2.05,2.05v96.8a2.06,2.06,0,0,0,2.05,2.06H161.09a2.07,2.07,0,0,0,1.56-.72l0-.06a1.71,1.71,0,0,0,.3-.5,2,2,0,0,0,.15-.78V2.05A2.05,2.05,0,0,0,161.09,0Zm1.47,98.85a1.46,1.46,0,0,1-.25.81,1.55,1.55,0,0,1-.55.5,1.57,1.57,0,0,1-.67.16H18.23a1.47,1.47,0,0,1-1.46-1.47V2.05A1.46,1.46,0,0,1,18.23.59H161.09a1.46,1.46,0,0,1,1.47,1.46Z"/><rect class="cls-2" x="16.48" y="8.23" width="146.37" height="0.59"/><circle class="cls-2" cx="21.46" cy="4.4" r="1.76"/><circle class="cls-2" cx="26.52" cy="4.4" r="1.76"/><circle class="cls-2" cx="31.58" cy="4.4" r="1.76"/><path class="cls-3" d="M97.73,18.24H45.92a3.21,3.21,0,0,0-3.21,3.21V86.87a3.22,3.22,0,0,0,3.21,3.22H97.73A3.22,3.22,0,0,0,101,86.87V21.45A3.22,3.22,0,0,0,97.73,18.24Zm2.84,68.63a2.84,2.84,0,0,1-2.84,2.84H45.92a2.84,2.84,0,0,1-2.83-2.84V21.45a2.83,2.83,0,0,1,2.83-2.83H97.73a2.84,2.84,0,0,1,2.84,2.83Z"/><path class="cls-4" d="M87.52,63.52H56.14c-3.21,0-3.22-4.9,0-4.91H87.52C90.73,58.62,90.74,63.51,87.52,63.52Z"/><path class="cls-4" d="M87.52,72.6H56.14c-3.21,0-3.22-4.9,0-4.92H87.52C90.73,67.7,90.74,72.58,87.52,72.6Z"/><path class="cls-4" d="M87.52,81.67H56.14c-3.21,0-3.22-4.9,0-4.91H87.52C90.73,76.77,90.74,81.66,87.52,81.67Z"/><path class="cls-3" d="M129.79,47.66a6.36,6.36,0,1,1,6.35-6.36A6.35,6.35,0,0,1,129.79,47.66Zm0-12.24a5.89,5.89,0,1,0,5.88,5.88h0A5.88,5.88,0,0,0,129.79,35.42Z"/><path class="cls-3" d="M132.61,41.07H130V38.13a.24.24,0,0,0-.48,0v2.94H127a.23.23,0,0,0-.24.23.24.24,0,0,0,.24.24h2.58v2.94a.24.24,0,0,0,.48,0V41.54h2.58a.24.24,0,0,0,.24-.24A.23.23,0,0,0,132.61,41.07Z"/><path class="cls-3" d="M130.26,82.49a6.36,6.36,0,1,1,6.35-6.36h0A6.36,6.36,0,0,1,130.26,82.49Zm0-12.24a5.89,5.89,0,1,0,5.88,5.88h0A5.88,5.88,0,0,0,130.26,70.25Z"/><path class="cls-3" d="M132.09,74l-1.83,1.83-2.08-2.08a.23.23,0,1,0-.33.33l2.08,2.08L128.1,78a.25.25,0,0,0,0,.34.24.24,0,0,0,.33,0l1.83-1.83,2.08,2.08a.23.23,0,0,0,.33,0,.24.24,0,0,0,0-.33l-2.08-2.08,1.83-1.83a.23.23,0,0,0,0-.33.24.24,0,0,0-.33,0Z"/><path class="cls-4" d="M87,52.71H56.7a3.12,3.12,0,0,1-3.12-3.12V32.65a3.12,3.12,0,0,1,3.12-3.12H87a3.11,3.11,0,0,1,3.12,3.12V49.59A3.12,3.12,0,0,1,87,52.71Z"/><rect class="cls-3" x="103.64" y="47.09" width="19.13" height="0.47" transform="translate(-8.46 63.24) rotate(-30.14)"/><rect class="cls-3" x="112.97" y="59.37" width="0.47" height="19.13" transform="matrix(0.5, -0.86, 0.86, 0.5, -3.25, 132.22)"/><rect class="cls-5" x="46.67" y="67.6" width="7.6" height="0.87" transform="matrix(0.55, -0.83, 0.83, 0.55, -34.14, 72.29)"/><path class="cls-5" d="M55.49,60.5a26.25,26.25,0,0,1-7.58,3.9l4.28,1L54.81,69A26.19,26.19,0,0,1,55.49,60.5Z"/><rect class="cls-5" x="139.35" y="44.34" width="0.87" height="7.6" transform="translate(-3.22 85.62) rotate(-33.69)"/><path class="cls-5" d="M134.76,40.6a26.56,26.56,0,0,0,7.59,3.9l-4.29,1-2.61,3.54A26.4,26.4,0,0,0,134.76,40.6Z"/><circle class="cls-5" cx="147.26" cy="58.69" r="7.41"/><path class="cls-3" d="M158,153.83h-11.3c0,.33-11.64.59-11.64.59a3.71,3.71,0,0,0-.5.47,3,3,0,0,0-.68,1.88v.48a2.94,2.94,0,0,0,2.94,2.94H158a3,3,0,0,0,3-2.94v-.48A3,3,0,0,0,158,153.83Z"/><rect class="cls-3" x="145.98" y="160.07" width="3.06" height="19.77"/><path class="cls-3" d="M157.75,179.73c0,.33-4.64.13-10.36.13s-10.35.2-10.35-.13,4.63-2.95,10.35-2.95S157.75,179.4,157.75,179.73Z"/><polygon class="cls-6" points="132.09 177.13 129.21 177.13 127.83 166 132.09 166 132.09 177.13"/><path class="cls-1" d="M127.15,176.31h5.56v3.5h-9.07A3.51,3.51,0,0,1,127.15,176.31Z"/><polygon class="cls-6" points="127.59 175.52 124.84 174.66 126.86 163.63 130.92 164.9 127.59 175.52"/><path class="cls-1" d="M123.12,173.25l5.31,1.67h0l-1.05,3.34h0l-8.66-2.71h0A3.51,3.51,0,0,1,123.12,173.25Z"/><path class="cls-1" d="M150.26,151.9a9.34,9.34,0,0,0-.36-1.65l-.54-.68-1.4-1.76h-.06c-.11,0-.54,0-1.2.08h0c-.41,0-.92.07-1.49.13l-.47,0v2.46h2.94a.59.59,0,0,1,.59.51v.08a.59.59,0,0,1-.59.59H130.59a5.73,5.73,0,0,0-.63.47,3.48,3.48,0,0,0-1.24,1.85c-1,4.38-2.81,12.56-3.35,15a1.09,1.09,0,0,0,.66,1.22l2.13.79a.9.9,0,0,0,.27.07h.1a1.06,1.06,0,0,0,1-.68l1.67-4.4,2.59-6.77,1-2.69c1.18.28,11.11,2.48,14.44-1.06a3.88,3.88,0,0,0,.76-1.2A5,5,0,0,0,150.26,151.9Z"/><path class="cls-1" d="M153.14,152.54c0-.21-.11-.42-.18-.64L151,149.46H151l-1.6.11c-1,.09-2.43.23-4,.44l-.14,0-.47.06v.44h2.94a.59.59,0,0,1,.59.51v.08a.59.59,0,0,1-.59.59h-10.4c-.45.14-.89.3-1.31.47-2.19.87-3.84,2-4.18,3.49-.11.5-.23,1.05-.37,1.63-.48,2.17-1.08,4.83-1.62,7.25h0c-.11.5-.22,1-.33,1.45l-1,4.64v.08h0a1.09,1.09,0,0,0,.06.54h0a1.07,1.07,0,0,0,.31.42,1.49,1.49,0,0,0,.3.18l2.13.79a.94.94,0,0,0,.37.07,1,1,0,0,0,.5-.13,1.05,1.05,0,0,0,.49-.55l4.57-12,.71-1.86c1.18.28,11.11,2.48,14.44-1.06a4,4,0,0,0,1-2.61A7.37,7.37,0,0,0,153.14,152.54Z"/><path class="cls-5" d="M152.88,131.78l-.12-.13a5.78,5.78,0,0,0-4.94-1.74,18.46,18.46,0,0,0-2.33.46,5.83,5.83,0,0,0-4.38,5.76c0,.32,0,.65,0,1v.48h2.32a1.53,1.53,0,0,1,.3,0,1.3,1.3,0,0,1,1,1.26v11l.47.13.14,0,.16.05c.48.15.95.3,1.41.47h.76a.59.59,0,0,1,.59.51l.46.19c.55.23,1.06.45,1.54.67.63.3,1.2.57,1.68.82a1.13,1.13,0,0,0,.48.11,1,1,0,0,0,.61-.2l.11-.09a1.08,1.08,0,0,0,.32-.93,30.62,30.62,0,0,1-.21-5.58c.06-1.57.2-3.17.39-4.72.1-.84.21-1.67.32-2.46s.23-1.48.35-2.17A5.82,5.82,0,0,0,152.88,131.78Z"/><path class="cls-5" d="M143.23,132a2.65,2.65,0,0,0-.37-.12,2.7,2.7,0,0,0-3.19,1.53l-1.62,3.73-.2.48h5.59a1.53,1.53,0,0,1,.3,0l.18-.43.72-1.66A2.72,2.72,0,0,0,143.23,132Z"/><circle class="cls-6" cx="148.25" cy="122.29" r="5.78"/><path class="cls-6" d="M154,138.85l-3.3.09-.24,2.32,0,.54-5.17,2.32-.47.21v4.12l.47-.13,1.49-.42h0l6.55-1.87.07,0a2.57,2.57,0,0,0,1.85-2.44l0-2.73v-2Z"/><path class="cls-5" d="M155,134.27a2.71,2.71,0,0,0-5.41.33l.36,5.87a1.07,1.07,0,0,0,.43.79,1,1,0,0,0,.7.2l2.52-.15.76-.05a1,1,0,0,0,.73-.35l.06-.07a1.09,1.09,0,0,0,.21-.7Z"/><path class="cls-7" d="M145.5,150.06h-.3v0l-.47.06v.44h2.18C146.45,150.36,146,150.21,145.5,150.06Zm0,0h-.3v0l-.47.06v.44h2.18C146.45,150.36,146,150.21,145.5,150.06Zm2.17,0H145.2V138.88a1.75,1.75,0,0,0-1.28-1.69,1.56,1.56,0,0,0-.48-.08h-21a1.78,1.78,0,0,0-1.76,1.77v11.53a1.76,1.76,0,0,0,1.76,1.77h25.18a1.05,1.05,0,0,0,1.05-1,.41.41,0,0,0,0-.11,1.05,1.05,0,0,0-1.06-1.06Zm.59,1.06a.59.59,0,0,1-.59.59H122.49a1.3,1.3,0,0,1-1.29-1.3V138.88a1.29,1.29,0,0,1,1.29-1.29h21a1.53,1.53,0,0,1,.3,0,1.3,1.3,0,0,1,1,1.26v11.65h2.94a.59.59,0,0,1,.59.51v.08Zm-2.76-1.06h-.3v0l-.47.06v.44h2.18c-.46-.17-.93-.32-1.41-.47Z"/><circle class="cls-5" cx="132.96" cy="144.65" r="1.41"/><path class="cls-3" d="M20.41,153.25v.47a2.94,2.94,0,0,0,2.94,2.94H44.53a2.94,2.94,0,0,0,2.94-2.94v-.47a2.91,2.91,0,0,0-.68-1.89,3.12,3.12,0,0,0-.49-.47s-11.65-.26-11.65-.59H23.35A3,3,0,0,0,20.41,153.25Z"/><rect class="cls-3" x="32.3" y="156.54" width="3.06" height="19.77"/><path class="cls-3" d="M23.59,176.2c0,.33,4.63.13,10.35.13s10.36.2,10.36-.13-4.64-2.95-10.36-2.95S23.59,175.87,23.59,176.2Z"/><polygon class="cls-8" points="49.38 173.78 52.27 173.78 53.64 162.65 49.38 162.65 49.38 173.78"/><path class="cls-1" d="M57.83,176.46H48.76V173h5.57a3.5,3.5,0,0,1,3.5,3.5Z"/><polygon class="cls-8" points="53.88 172.17 56.64 171.31 54.62 160.28 50.55 161.55 53.88 172.17"/><path class="cls-1" d="M62.75,172.2l-8.65,2.71h0l-1.05-3.34h0l5.31-1.67a3.51,3.51,0,0,1,4.39,2.3Z"/><path class="cls-1" d="M56.1,165.65c-.53-2.4-2.35-10.59-3.35-15a3.46,3.46,0,0,0-1.17-1.8c-.2-.16-.4-.32-.61-.47H35.37a.58.58,0,0,1-.59-.58v-.08a.59.59,0,0,1,.59-.51h2.94V144.9l-.47-.05c-1.23-.15-2.29-.24-3.05-.3l-1.21-.08h-.06l-1.41,1.77-.54.67a8.51,8.51,0,0,0-.35,1.65,4.25,4.25,0,0,0,1,3.58c3.32,3.54,13.25,1.34,14.44,1.07L52,167.05a1.05,1.05,0,0,0,1,.68H53a1.27,1.27,0,0,0,.28-.06l2.12-.8A1.07,1.07,0,0,0,56.1,165.65Z"/><path class="cls-1" d="M53,167.3c-.53-2.41-2.35-10.59-3.35-15-.33-1.46-1.91-2.58-4-3.45-.41-.16-.84-.32-1.28-.47h-9a.58.58,0,0,1-.59-.58v-.08a.59.59,0,0,1,.59-.51h2.94V147l-1-.16-.43-.06-.77-.11c-1.59-.21-3-.35-4-.43s-1.47-.11-1.59-.12h-.06l-1.94,2.44c-.07.22-.13.44-.18.65a4.72,4.72,0,0,0,.84,4.58c3.32,3.54,13.25,1.34,14.44,1.06L48.9,168.7a1.06,1.06,0,0,0,1.36.61l2.12-.79a1,1,0,0,0,.66-.79A.79.79,0,0,0,53,167.3Z"/><path class="cls-8" d="M50.07,139.94a1.42,1.42,0,0,0-1.28.83l2.14-.54A1.42,1.42,0,0,0,50.07,139.94Z"/><path class="cls-9" d="M40.36,132.63a5.8,5.8,0,0,0-1.74-4.14A6,6,0,0,0,36,127a20.59,20.59,0,0,0-2.34-.46,5.78,5.78,0,0,0-4.93,1.74l-.12.13a5.79,5.79,0,0,0-1.43,4.9c.11.69.23,1.42.34,2.17s.23,1.62.32,2.46c.19,1.55.33,3.16.4,4.72a29.76,29.76,0,0,1-.22,5.58,1.08,1.08,0,0,0,.33.94l.1.08a1,1,0,0,0,1.1.08c.47-.24,1-.52,1.68-.81,1-.44,2.08-.91,3.29-1.35.42-.15.85-.3,1.28-.43l.34-.11c.56-.17,1.13-.33,1.71-.47l.47-.1v-10.5a1.3,1.3,0,0,1,1-1.26,1,1,0,0,1,.3,0h.76c0-.15,0-.31,0-.47,0-.35,0-.7,0-1Z"/><path class="cls-9" d="M43.44,133.82,41.8,130a2.71,2.71,0,0,0-3.18-1.54l-.38.13a2.72,2.72,0,0,0-1.41,3.56L38,134.86l.32.73a1.3,1.3,0,0,1,1-1.26,1,1,0,0,1,.3,0h4Z"/><circle class="cls-8" cx="33.22" cy="118.94" r="5.78"/><path class="cls-1" d="M29.73,124.08a.93.93,0,0,1-1.32.09h0a10.47,10.47,0,0,1-3-3.9,7,7,0,0,1,0-5.65,7.86,7.86,0,0,1,3.32-3.07,5.57,5.57,0,0,1,1.61-.68,2.13,2.13,0,0,1,1.68.33,1.77,1.77,0,0,1,.68,1.71A5.17,5.17,0,0,1,35,111.16a2.72,2.72,0,0,1,1.78-.12,3.28,3.28,0,0,1,1.79,2,4.5,4.5,0,0,1,.29,2.18,2.59,2.59,0,0,1-1,1.8,2.83,2.83,0,0,1-2.35.21,19.5,19.5,0,0,0-2.35-.65,2.22,2.22,0,0,0-2.18.83,4.11,4.11,0,0,0-.48,1.8l-.36,3.3a4.06,4.06,0,0,1-.3,1.37A1,1,0,0,1,29.73,124.08Z"/><path class="cls-8" d="M37.84,141.47l-6.74-3-.05-.54-.24-2.32-3.3-.09-1.24,0v2l0,2.73a2.57,2.57,0,0,0,1.85,2.44l.08,0,6.56,1.87,3.05.87.47.13v-3.87Z"/><path class="cls-9" d="M29.31,128.38a2.71,2.71,0,0,0-2.87,2.53h0l-.36,5.87a1.09,1.09,0,0,0,.2.7l.06.07a1.08,1.08,0,0,0,.32.24,1,1,0,0,0,.41.11l.76.05,2.53.16a1.07,1.07,0,0,0,1.12-1l.36-5.87A2.71,2.71,0,0,0,29.31,128.38Z"/><path class="cls-1" d="M152.66,126.73c-.49.27-1.1.53-1.57.21a1.42,1.42,0,0,1-.34-1.55,7.12,7.12,0,0,0,.49-1.61,2.37,2.37,0,0,0-1.18-2,6.42,6.42,0,0,0-2.23-.72l-4.22-.8a4.7,4.7,0,0,1-2.87-1.29,3.16,3.16,0,0,1,.63-4.23,5.08,5.08,0,0,1,4.38-.76,24,24,0,0,0,2.48.57c1.67.18,3.43-.48,5,.2a4.54,4.54,0,0,1,2.35,3.62,12.24,12.24,0,0,1-.51,4.49,8.24,8.24,0,0,1-1,2.49,2.73,2.73,0,0,1-2.14,1.33Z"/><circle class="cls-1" cx="156.28" cy="115.42" r="4.71"/><path class="cls-7" d="M37.84,146.74v0h-.31l-.2.06-1.2.41h2.18v-.44Zm0,0v0h-.31l-.2.06-1.2.41h2.18v-.44Zm0,0v0h-.31l-.2.06,1,.16v-.19Zm0-.55v.58h-.31l-.2.06-1.2.41h2.18v-1.15Zm0,0v.58h-.31l-.2.06-1.2.41h2.18v-1.15Zm0,0v.58h-.31l-.2.06-1.2.41h2.18v-1.15Zm22.71-12.37H39.6a2.07,2.07,0,0,0-.49.07,1.74,1.74,0,0,0-1.27,1.7v11.18H35.37a1.05,1.05,0,0,0-1.06,1.06h0v.11a1.06,1.06,0,0,0,1.06.94H60.55a1.76,1.76,0,0,0,1.76-1.76V135.59A1.76,1.76,0,0,0,60.55,133.82Zm1.29,13.3a1.29,1.29,0,0,1-1.29,1.29H35.37a.58.58,0,0,1-.59-.58v-.08a.59.59,0,0,1,.59-.51h2.94V135.59a1.3,1.3,0,0,1,1-1.26,1,1,0,0,1,.3,0H60.55a1.3,1.3,0,0,1,1.29,1.3Zm-24-.93v.58h-.31l-.2.06-1.2.41h2.18v-1.15Zm0,0v.58h-.31l-.2.06-1.2.41h2.18v-1.15Zm0,0v.58h-.31l-.2.06-1.2.41h2.18v-1.15Zm0,.55v0h-.31l-.2.06-1.2.41h2.18v-.44Z"/><path class="cls-5" d="M51.49,141.35a1.42,1.42,0,1,1-2.83,0,1.48,1.48,0,0,1,.13-.58,1.41,1.41,0,0,1,2.7.58Z"/><circle class="cls-5" cx="42.71" cy="79.22" r="7.41"/><text class="cls-10" transform="translate(39.06 83.56)">£</text><text class="cls-10" transform="translate(143.61 62.95)">£</text></svg>