<?xml version="1.0" encoding="UTF-8"?>
<svg width="13px" height="15px" viewBox="0 0 13 15" version="1.1" xmlns="http://www.w3.org/2000/svg" xmlns:xlink="http://www.w3.org/1999/xlink">
    <title>Ignite-white</title>
    <g id="Page-2" stroke="none" stroke-width="1" fill="none" fill-rule="evenodd">
        <g id="Artboard" fill-rule="nonzero">
            <g id="Ignite-white">
                <path d="M6.83,3.46294174e-16 C3.77,-0.11 -1.17,9 0.26,12.22 C1.69,15.44 10.98,15.54 12.53,12.65 C14.08,9.76 9.9,0.11 6.83,3.46294174e-16 Z M7.54,11.75 L7.54,11.13 C7.5525043,10.7477258 7.3601179,10.3878189 7.03531089,10.1858528 C6.71050389,9.98388667 6.30262219,9.97054475 5.96531088,10.1508528 C5.62799958,10.3311609 5.41250429,10.6777258 5.4,11.06 L5.4,11.79 C4.75448306,11.1838966 4.3918908,10.3354308 4.4,9.45 C4.38143012,8.9168506 4.65316223,8.41548572 5.11,8.14 L5.11,7.92 C5.05997923,6.12315763 5.61655922,4.36182852 6.69,2.92 C7.6642085,4.42539303 8.10442466,6.21443149 7.94,8 L7.94,8.22 C8.37936006,8.52238538 8.62046146,9.03903125 8.57,9.57 C8.52194709,10.4026362 8.15270113,11.1841471 7.54,11.75 Z" id="Shape" fill="#D11721"></path>
                <path d="M7.54,11.75 L7.54,11.13 C7.5525043,10.7477258 7.3601179,10.3878189 7.03531089,10.1858528 C6.71050389,9.98388667 6.30262219,9.97054475 5.96531088,10.1508528 C5.62799958,10.3311609 5.41250429,10.6777258 5.4,11.06 L5.4,11.79 C4.75448306,11.1838966 4.3918908,10.3354308 4.4,9.45 C4.38143012,8.9168506 4.65316223,8.41548572 5.11,8.14 L5.11,7.92 C5.05997923,6.12315763 5.61655922,4.36182852 6.69,2.92 C7.6642085,4.42539303 8.10442466,6.21443149 7.94,8 L7.94,8.22 C8.37936006,8.52238538 8.62046146,9.03903125 8.57,9.57 C8.52194709,10.4026362 8.15270113,11.1841471 7.54,11.75 Z" id="Path" fill="#FFFFFF"></path>
            </g>
        </g>
    </g>
</svg>