<?xml version="1.0" encoding="utf-8"?>
<!-- Generator: Adobe Illustrator 25.2.0, SVG Export Plug-In . SVG Version: 6.00 Build 0)  -->
<svg version="1.1" id="bcfc90fc-1801-486c-9e09-9c6e0f993d66"
	 xmlns="http://www.w3.org/2000/svg" xmlns:xlink="http://www.w3.org/1999/xlink" x="0px" y="0px" viewBox="0 0 800 800"
	 style="enable-background:new 0 0 800 800;" xml:space="preserve">
<style type="text/css">
	.st0{opacity:0.1;fill:#3AAA35;enable-background:new    ;}
	.st1{fill:#FFFFFF;}
	.st2{fill:#3AAA35;}
	.st3{fill:#2A327D;}
	.st4{fill:#1D71B8;}
	.st5{fill:#FFB8B8;}
	.st6{fill:#2F2E41;}
	.st7{fill:#CCCCCC;}
	.st8{fill:#FFB9B9;}
	.st9{fill:#E6E6E6;}
	.st10{fill:#6C63FF;}
	.st11{opacity:0.9;fill:#3AAA35;enable-background:new    ;}
	.st12{opacity:0.2;enable-background:new    ;}
</style>
<rect x="48.1" y="3.2" class="st0" width="703.6" height="450.6"/>
<rect x="68.2" y="59.7" class="st1" width="663.3" height="171.8"/>
<rect x="233.2" y="84.5" class="st0" width="140.3" height="8.1"/>
<rect x="233.2" y="113.9" class="st2" width="216.6" height="8.1"/>
<rect x="233.2" y="141.6" class="st0" width="176.5" height="8.1"/>
<rect x="233.2" y="169.1" class="st0" width="103.1" height="8.1"/>
<rect x="233.2" y="196.7" class="st0" width="155.5" height="8.1"/>
<rect x="169.2" y="81.7" class="st0" width="17.2" height="17.2"/>
<rect x="169.2" y="109.3" class="st2" width="17.2" height="17.2"/>
<rect x="169.2" y="137" class="st0" width="17.2" height="17.2"/>
<rect x="169.2" y="164.7" class="st0" width="17.2" height="17.2"/>
<rect x="169.2" y="192.4" class="st0" width="17.2" height="17.2"/>
<rect x="581.5" y="120.8" class="st0" width="57.3" height="57.3"/>
<rect x="68.2" y="255.3" class="st1" width="663.3" height="171.8"/>
<rect x="198.8" y="270.6" class="st0" width="17.2" height="17.2"/>
<rect x="169.2" y="270.6" class="st2" width="17.2" height="17.2"/>
<path class="st0" d="M460.5,308.2c-18.3-30.9-58.2-41.2-89.1-22.9c-6,3.5-11.4,8-15.9,13.2l-4.2-3.7c25.6-29.4,70.2-32.4,99.6-6.8
	c5.7,5,10.5,10.8,14.4,17.3L460.5,308.2z"/>
<path class="st2" d="M463.1,380.6l-4.6-3.1c13.9-20.8,14.7-47.8,2-69.3l4.8-2.8C479.1,328.8,478.2,358,463.1,380.6L463.1,380.6z"/>
<path class="st3" d="M351.9,388.3c-23.8-26.6-24-66.7-0.6-93.5l4.2,3.7c-21.6,24.7-21.4,61.7,0.5,86.2L351.9,388.3z"/>
<path class="st4" d="M404.5,411.9c-20.1,0-39.2-8.6-52.6-23.5l4.1-3.7c24,26.8,65.1,29,91.8,5.1c4-3.6,7.6-7.7,10.6-12.2l4.6,3.1
	C450,400.1,428,411.9,404.5,411.9z"/>
<rect x="581.5" y="307.8" class="st0" width="57.3" height="57.3"/>
<rect x="166.9" y="345" class="st0" width="57.3" height="57.3"/>
<rect x="47.8" y="2.8" class="st2" width="703.6" height="29.9"/>
<circle class="st1" cx="70" cy="18.1" r="5.5"/>
<circle class="st1" cx="91" cy="18.1" r="5.5"/>
<circle class="st1" cx="112" cy="18.1" r="5.5"/>
<polygon class="st5" points="706.4,783.3 720.7,783.3 727.4,728.4 706.4,728.4 "/>
<path class="st6" d="M702.8,778.7h28.1l0,0c9.9,0,17.9,8,17.9,17.9v0.6h-45.9L702.8,778.7z"/>
<polygon class="st5" points="671,729.4 681.5,739 723.5,703 708,688.8 "/>
<path class="st6" d="M671.4,723.5l20.7,18.9l0,0c7.3,6.7,7.8,18,1.1,25.3l-0.4,0.4l-33.9-31L671.4,723.5z"/>
<polygon class="st6" points="728.8,590.4 724.8,671.1 734.9,758.9 704.6,763 685.4,651.9 679.4,576.2 "/>
<path class="st6" d="M776.2,561.1c0,0,12.1,79.7-13.1,106s-59.5,72.7-59.5,72.7l-24.2-30.3l61.6-65.6l-12.1-44.4l-49.5-23.2
	l8.1-55.5l72.7-1L776.2,561.1z"/>
<circle class="st5" cx="720.7" cy="351.7" r="24.7"/>
<polygon class="st7" points="741.2,386.8 745,392.6 755.1,420.8 747,530.8 699.5,531.8 693.5,405.7 706.2,389.8 "/>
<path class="st6" d="M674.3,408.7l-8.1-1c0,0-2,1-3,8.1s-13.1,69.6-13.1,69.6l16.1,76.7l18.2-24.2l-11.1-42.4l11.1-42.4L674.3,408.7
	z"/>
<polygon class="st6" points="777.3,407.7 783.3,407.7 798.5,489.4 784.3,553 770.2,529.8 774.2,504.6 772.2,482.4 765.1,469.3 "/>
<path class="st6" d="M735.3,351.7l-4.5-1.1c0,0-3.4-19.1-11.2-16.9c-7.9,2.2-28.1,4.5-28.1-4.5s19.1-16.9,30.3-15.7
	c11.2,1.1,25.6,4.9,29.2,21.3c5.8,26.4-12,33.1-12,33.1l0.3-1C741,361.5,739.4,355.6,735.3,351.7z"/>
<path class="st6" d="M667.2,407.7l32.3-13.1l7.6-5.6l22.7,100.4l15.1-45.4l-4.5-58l41.9,21.7l-14.1,68.6l-2,26.2l6.1,21.2
	c0,0,21.2,15.1,14.1,31.3c-7.1,16.1-15.1,17.2-15.1,17.2S737,539.9,735,531.8c-2-8.1-5-22.2-5-22.2s-17.2,64.6-37.3,63.6
	S672.5,551,672.5,551l5-22.2l8.1-23.2l-4-38.4L667.2,407.7z"/>
<path class="st2" d="M795.7,800H3c-1.6,0-3-0.4-3-1s1.3-1,3-1h792.6c1.6,0,3,0.4,3,1S797.3,800,795.7,800z"/>
<circle class="st6" cx="81.6" cy="337.6" r="30.5"/>
<path class="st8" d="M7.7,538.6L6,548.5c0,0-9.1,33.8,2.5,32.2s7.4-30.5,7.4-30.5l1.7-9.1L7.7,538.6z"/>
<path class="st6" d="M109.7,492H42.8c0,0-19,29.7-11.6,81.7s4.1,168.4,4.1,168.4h25.6l17.3-182.5l36.3,182.5l23.9-2.5l-13.2-210.5
	L109.7,492z"/>
<path class="st6" d="M42.4,739.2l-0.8,30.5c0,0-10.7,30.5,5,27.2s17.3-9.9,17.3-12.4s-4.1-45.4-4.1-45.4H42.4V739.2z"/>
<path class="st6" d="M134.4,736.9l4.7,32.7c0,0,14.6,28.9-1.4,27.7s-18.5-7.6-18.8-10.1s-1.7-48-1.7-48L134.4,736.9z"/>
<circle class="st8" cx="82" cy="345.4" r="22.3"/>
<polygon class="st8" points="99,354.9 108,386.3 89.9,404.4 80,387.1 76.7,362.3 "/>
<path class="st9" d="M106.8,376c0,0-1.2-8.3-3.9-7.5c-2.7,0.9-26.6,6.6-26.6,9.1v10.7l-19.8,76.8l-5,31.4l52-0.8l8.3-109L106.8,376z
	"/>
<path class="st6" d="M102.3,367.3l5.8,1.7l9.5,9.5c0,0,23.1-4.1,26.4,6.6c3.3,10.7-18.2,144.5-18.2,144.5s-36.3,12.4-42.1-19
	c-5.8-31.4-5.4-58.2,6.2-78S102.3,367.3,102.3,367.3z"/>
<path class="st6" d="M78.3,374.7l-3.3,1.7l-2.9,12.8c0,0-23.9,6.6-25.6,15.7s0.8,58.6,0.8,58.6s-23.1,47.1-19,66.9
	c0,0,9.9,8.3,17.3-2.5c7.4-10.7,25.6-75.1,26.4-79.3C73,444.5,82,375.8,78.3,374.7z"/>
<polygon class="st6" points="55.6,401.6 46.8,404 40.8,421.4 28.4,466 4.4,539.4 20.9,546.9 47.4,493.2 "/>
<path class="st6" d="M99,342.5c-14.2-5.1-19-8.3-34.7,0l-5.8-23.1h46.2L99,342.5z"/>
<circle class="st6" cx="79.2" cy="305.4" r="17.3"/>
<path class="st6" d="M58.5,301.3c0-9.2,7.3-16.9,16.5-17.3c-0.3,0-0.5,0-0.8,0c-9.6,0-17.3,7.8-17.3,17.3c0,9.6,7.8,17.3,17.3,17.3
	c0.3,0,0.6,0,0.8,0C65.8,318.1,58.5,310.5,58.5,301.3z"/>
<rect x="45.1" y="541.6" class="st10" width="64.4" height="27.4"/>
<rect x="45.1" y="541.6" class="st11" width="64.4" height="27.4"/>
<circle class="st12" cx="77.3" cy="555.3" r="7.5"/>
<polygon class="st12" points="60.2,566.9 47.8,566.9 47.8,543.6 60.8,543.6 60.8,545 49.2,545 49.2,565.6 60.2,565.6 "/>
<polygon class="st12" points="106.7,566.9 94.4,566.9 94.4,565.6 105.4,565.6 105.4,545 93.7,545 93.7,543.6 106.7,543.6 "/>
<rect x="42.6" y="553.1" transform="matrix(0.9545 -0.2981 0.2981 0.9545 -165.5726 48.0621)" class="st2" width="64.4" height="27.4"/>
<circle class="st12" cx="74.8" cy="566.8" r="7.5"/>
<polygon class="st12" points="61.9,583.1 50.2,586.7 43.2,564.5 55.6,560.6 56.1,561.9 44.9,565.4 51.1,585 61.5,581.8 "/>
<polygon class="st12" points="106.4,569.2 94.6,572.9 94.2,571.5 104.7,568.3 98.6,548.7 87.4,552.1 87,550.8 99.5,546.9 "/>
<path class="st8" d="M109.4,524.9l-3.8,9.3c0,0-10,33.6-19,26.1s9.7-29.9,9.7-29.9l3.3-8.6L109.4,524.9z"/>
<path class="st6" d="M132.4,387.5L144,385c1.6,4.9,3,9.8,4,14.9c1.7,8.3-0.9,73.5-2.5,80.1c-1.7,6.6-31.6,50.6-31.6,50.6L87,524.8
	l38.9-58.8L132.4,387.5z"/>
<polygon class="st12" points="126.2,429.5 119,469 92.1,523.7 116.3,466.3 "/>
</svg>
