<svg id="Layer_1" data-name="Layer 1" xmlns="http://www.w3.org/2000/svg" viewBox="0 0 180 180"><defs><style>.cls-1{fill:#f2f2f2;}.cls-2{fill:#1e71b8;}.cls-3{fill:#010101;opacity:0.1;isolation:isolate;}.cls-4{fill:#fff;}.cls-5{fill:#3caa36;}.cls-6{fill:#f6b7ba;}.cls-7{fill:#302f42;}.cls-8{fill:#d0cde1;}</style></defs><path class="cls-1" d="M2.49,72.94C8.91,31.3,31.07,1.24,57.08,0,70.84-.6,85.31,6.93,95.85,33.28c18.83,47.11-1.16,79.66-15.1,95.13a124.62,124.62,0,0,0-18,26.75c-9.41,18.45-27.52,41.37-49.1,5.45C-2,134.58-1.78,100.68,2.49,72.94Z"/><rect class="cls-2" x="45.52" y="109.85" width="134.48" height="68.16"/><polygon class="cls-3" points="96.1 109.85 45.52 144.57 45.52 124.47 66.81 109.85 96.1 109.85"/><polygon class="cls-3" points="146.08 109.85 98.77 142.33 97.08 143.49 46.8 178.01 45.52 178.01 45.52 158.78 77.92 136.53 79.01 135.79 116.79 109.85 146.08 109.85"/><path class="cls-1" d="M51,144.15l-.51-.64a41.22,41.22,0,0,1,13.18-6.31,42,42,0,0,1,14.41-1.49A45,45,0,0,1,95.91,141l-.38.72c-12.87-6.82-24.28-5.79-31.6-3.73A39.81,39.81,0,0,0,51,144.15Z"/><path class="cls-1" d="M99.93,143.83a24.49,24.49,0,0,0-7.91-.15l3.13-2.62.73-4A24.3,24.3,0,0,0,99.93,143.83Z"/><path class="cls-1" d="M133.79,152.05a42.11,42.11,0,0,1-11.43-1.59,41.22,41.22,0,0,1-13.18-6.31l.5-.64a40.33,40.33,0,0,0,12.94,6.18c7.3,2.05,18.71,3.07,31.56-3.74l.38.72A45,45,0,0,1,136.77,152C135.78,152,134.79,152.05,133.79,152.05Z"/><path class="cls-1" d="M158.58,143.83a24.3,24.3,0,0,0-4.05,6.8l-.73-4L150.67,144A24.49,24.49,0,0,0,158.58,143.83Z"/><rect class="cls-4" x="155.74" y="128.46" width="13.15" height="0.4"/><rect class="cls-4" x="155.74" y="132.5" width="13.15" height="0.4"/><rect class="cls-4" x="155.74" y="136.55" width="13.15" height="0.4"/><rect class="cls-4" x="96.69" y="152.32" width="13.15" height="0.4"/><rect class="cls-4" x="96.69" y="156.37" width="13.15" height="0.4"/><rect class="cls-4" x="96.69" y="160.41" width="13.15" height="0.4"/><circle class="cls-5" cx="103.57" cy="146.26" r="2.63"/><circle class="cls-5" cx="162.42" cy="142.62" r="2.63"/><path class="cls-2" d="M77.17,91.55l-3.92-4.2,4.2-3.91,3.92,4.2Zm-3.29-4.17,3.31,3.55,3.55-3.32-3.31-3.55Z"/><path class="cls-2" d="M171.39,42.34l-3.92-4.2,4.2-3.92,3.92,4.2Zm-3.29-4.18,3.31,3.55L175,38.4l-3.31-3.55Z"/><circle class="cls-5" cx="134.45" cy="129.88" r="2.93"/><path class="cls-1" d="M134.45,138.35a8.47,8.47,0,1,1,8.46-8.47h0A8.48,8.48,0,0,1,134.45,138.35Zm0-16.29a7.82,7.82,0,1,0,7.81,7.82A7.82,7.82,0,0,0,134.45,122.06Z"/><rect class="cls-1" x="117.96" y="59.28" width="24.42" height="28.45"/><path class="cls-2" d="M134.07,130.25l-.34-.33a17.18,17.18,0,0,0,3.48-6.08c1.15-3.47,1.72-9-2.15-15.36s-4.13-11.87-3.59-15.18a13.68,13.68,0,0,1,2.18-5.71l.38.29a13.35,13.35,0,0,0-2.09,5.52c-.53,3.23-.35,8.42,3.53,14.84,4,6.57,3.38,12.2,2.18,15.77A17.23,17.23,0,0,1,134.07,130.25Z"/><path class="cls-2" d="M151.86,88H117.72V53.83h34.14Zm-33.67-.47h33.2V54.3h-33.2Z"/><rect class="cls-2" x="124.83" y="63.79" width="20.86" height="0.47"/><rect class="cls-2" x="124.83" y="69" width="20.86" height="0.47"/><rect class="cls-2" x="124.83" y="74.22" width="20.86" height="0.47"/><polygon class="cls-6" points="34.38 157.15 33.52 165.44 38.38 164.87 38.95 158.01 34.38 157.15"/><path class="cls-7" d="M21.51,94.25s-24.87,24-9.15,31.45h4.87S27.8,108.26,33,108.55l1.43,16.58-.86,33.45,6.29.29s3.72-16.87,3.43-26.31l6.58-34.88Z"/><path class="cls-7" d="M13.79,124.56l3.44,1.14s13.43-3.14,14.29-2.86l2.66,0L34.09,116H22.66Z"/><path class="cls-7" d="M39,163.73s-5.14-2.29-6,0-.57,8.86-.57,8.86a6.38,6.38,0,0,1,.57,4.29c-.57,2.29,2.29,3.43,6,2.29s3.72-4,3.72-4Z"/><path class="cls-7" d="M43.24,115.41s4-2.29,3.72,1.14a22.74,22.74,0,0,1-1.72,6.58s3.72,9.72,0,10.58-6.57-1.15-6.57-2.58S43.24,115.41,43.24,115.41Z"/><polygon class="cls-6" points="30.66 37.07 31.23 47.94 36.09 52.23 41.53 44.51 41.53 36.79 30.66 37.07"/><path class="cls-8" d="M34.38,47.94l-3.27-2.43L29,48.79l-9.72,5.72,5.71,14.87L25.23,84S14.65,94.82,20.94,96.25s28.59,4.58,29.74,2-1.43-29.17-1.43-29.17l.85-22.58-8.57-3.1Z"/><path class="cls-6" d="M16.94,66s-2.29,16.21,2,16.21a19.88,19.88,0,0,0,7.43-1.43L22.94,72l1.43-6Z"/><path class="cls-6" d="M23.52,80.24l3.14.58s9.15-5.72,9.72-6-9.15-5.14-9.15-5.14l-6.57,2.57Z"/><path class="cls-3" d="M27.23,69.67,23.1,71.28,24.37,66,16.94,66s-2.29,16.21,2,16.21a19.88,19.88,0,0,0,7.43-1.43l0-.06.31.06s9.15-5.72,9.72-6S27.23,69.67,27.23,69.67Z"/><circle class="cls-6" cx="37.28" cy="34.33" r="8.16"/><path class="cls-7" d="M30.06,25.12l-1.6-.64s3.34-3.67,8-3.35l-1.31-1.44s3.19-1.27,6.09,2.08a28,28,0,0,1,4.39,6.17h1.71l-.71,1.56,2.49,1.57-2.56-.28a8.76,8.76,0,0,1-.24,4.07l.07,1.24s-3-4.59-3-5.23v1.59S41.8,31,41.8,30.07l-.87,1.12-.43-1.76-5.37,1.76L36,29.75l-3.33.48L34,28.47s-3.77,2.08-3.91,3.83-2,4-2,4l-.87-1.6S25.85,27.51,30.06,25.12Z"/><path class="cls-6" d="M44.39,61.09a10.26,10.26,0,0,0-2.29,6.29L27,66.81s-4-.58-4,2.28V72s2-.85,3.15,0,13.44,8.29,19.44,5.44,7.43-14,7.43-14S47.53,58.8,44.39,61.09Z"/><path class="cls-8" d="M47.82,46.79l2.28-.28s4.58.57,4,9.43-.86,9.44-.86,9.44S47.24,60,43,62.52Z"/><path class="cls-8" d="M20.37,54.51H19.23a10.55,10.55,0,0,0-2.29,6.58,31.79,31.79,0,0,1-1,7.58l9-1.58Z"/><rect class="cls-2" x="162.17" y="90.71" width="0.44" height="11.51"/><path class="cls-2" d="M162.39,88a13.21,13.21,0,0,0,2.11,3.79l-2.11-.76-2.11.76A13.21,13.21,0,0,0,162.39,88Z"/><rect class="cls-2" x="108.96" y="80.73" width="0.44" height="11.51"/><path class="cls-2" d="M109.18,78.06a13.59,13.59,0,0,0,2.11,3.79l-2.11-.77-2.1.77A13.32,13.32,0,0,0,109.18,78.06Z"/></svg>