<svg xmlns="http://www.w3.org/2000/svg" width="490" height="415" viewBox="0 0 490 415">
  <g id="Group_21" data-name="Group 21" transform="translate(2453 -3220)">
    <rect id="Rectangle_35" data-name="Rectangle 35" width="490" height="415" transform="translate(-2453 3220)" fill="rgba(255,255,255,0.55)"/>
    <g id="Group_20" data-name="Group 20" transform="translate(-30.617 -40.055)">
      <path id="Path_25" data-name="Path 25" d="M1031.592,486.042h-396.7V239.069h396.7Zm-387.47-9.23h378.239V248.3H644.122Z" transform="translate(-3010.625 3105)" fill="#2a327d"/>
      <rect id="Rectangle_34" data-name="Rectangle 34" width="387.47" height="237.741" transform="translate(-2371.118 3348.684)" fill="#fff"/>
      <path id="Path_26" data-name="Path 26" d="M1026.453,303.415v-14.6H972.7V243.16H958.1v45.657H862.41V243.16h-14.6v45.657H700.219V243.16h-14.6v45.657H638.983v14.6h46.638v56.767H638.983v14.6h46.638V435.6H638.983v14.6h125.3v30.7h14.6V450.2h68.932v30.7h14.6V450.2h164.042V435.6H862.41V374.779h164.043v-14.6H972.7V303.415Zm-178.639,0v17.841h-147.6V303.415Zm-147.6,32.438H847.813v24.329H700.219Zm0,99.748V374.779h64.066V435.6Zm147.6,0H778.881V374.779h68.932ZM958.1,360.182H862.41V303.415H958.1Z" transform="translate(-3010.101 3105.524)" fill="rgba(29,113,184,0.43)"/>
      <path id="Path_27" data-name="Path 27" d="M825.058,178.077c0,15.507-28.078,50.051-28.078,50.051S768.9,193.584,768.9,178.077a28.078,28.078,0,1,1,56.155,0Z" transform="translate(-2950.799 3229.203)" fill="#3aaa35"/>
      <path id="Path_28" data-name="Path 28" d="M828.258,193.821a12.835,12.835,0,1,1-12.835-12.835A12.835,12.835,0,0,1,828.258,193.821Z" transform="translate(-2969.24 3212.239)" fill="#fff"/>
      <ellipse id="Ellipse_14" data-name="Ellipse 14" cx="7.569" cy="7.569" rx="7.569" ry="7.569" transform="translate(-2161.387 3462.459)" fill="#3aaa35"/>
    </g>
  </g>
</svg>
